<svg width="82" height="61" viewBox="0 0 82 61" fill="none" xmlns="http://www.w3.org/2000/svg">
<mask id="path-1-outside-1_6_308" maskUnits="userSpaceOnUse" x="-0.600006" y="-0.600098" width="83" height="62" fill="black">
<rect fill="white" x="-0.600006" y="-0.600098" width="83" height="62"/>
<path d="M69.8951 32.969C69.1249 35.8942 67.6808 38.2228 65.2162 39.8201C64.446 40.3205 63.7721 40.9941 62.8863 41.3597C62.636 41.4559 62.6168 41.7639 62.5012 41.9948C61.4615 44.2849 60.3062 46.4981 58.8235 48.538C57.0906 50.9052 54.8377 52.5795 52.2576 53.8881C51.4489 54.3115 50.5824 54.5617 49.7159 54.8696C44.7289 56.6401 39.4723 57.2175 34.312 58.2567C29.9411 59.1419 25.5317 59.854 21.0838 60.2774C18.9272 60.4891 16.7514 60.4314 14.6141 60.0657C14.229 60.008 13.8632 59.8733 13.5166 59.7C12.7079 59.2574 12.4768 58.5261 12.8619 57.6793C13.2278 56.9288 13.7669 56.3514 14.5756 55.8896C14.5371 56.236 14.3253 56.3899 14.1712 56.5631C13.6706 57.1982 12.9004 57.7948 13.247 58.6993C13.5743 59.5653 14.5371 59.5461 15.3073 59.6616C18.0415 60.0849 20.7564 59.9117 23.4907 59.6038C29.6137 58.9303 35.6405 57.6409 41.6866 56.5824C44.8059 56.0435 47.8289 55.1775 50.7557 54.0806C54.7607 52.5795 57.7838 49.8852 59.8826 46.1132C60.8068 44.4581 61.4807 42.6876 62.482 41.0903C62.6553 40.8209 62.6938 40.1281 63.3484 40.5707C63.3677 40.5707 63.464 40.5129 63.5217 40.4745C64.9466 39.3775 66.5448 38.5115 67.6038 36.9719C68.1044 36.2406 68.5665 35.49 68.8554 34.6433C69.0479 34.0659 69.2212 33.4116 69.8759 32.9882L69.8951 32.969Z"/>
<path d="M20.7372 3.96701C20.0055 3.65909 19.5819 2.92779 19.6589 2.19648C19.7552 1.3882 20.4099 0.676143 21.2186 0.502939C22.2968 0.272001 23.3559 0.46445 24.3956 0.733877C29.2671 2.00404 33.8498 4.02474 38.2977 6.37261C40.8201 7.70051 43.3233 9.04765 45.8264 10.414C49.3886 12.3385 52.5272 14.8403 55.2614 17.804C57.803 20.5561 59.5167 23.8084 60.7683 27.311C60.9223 27.7536 61.0764 28.1963 61.2497 28.7159C60.8646 28.6581 60.7875 28.3887 60.6913 28.1578C59.9018 26.4257 59.2471 24.6167 58.3422 22.9232C55.839 18.2852 52.0458 14.9366 47.7134 12.1076C45.3065 10.5487 42.7649 9.2016 40.2425 7.81598C39.5493 7.43108 38.9717 6.87298 38.2207 6.56506C33.6573 4.67907 29.2286 2.46591 24.3956 1.25349C23.6254 1.06104 22.836 0.887836 22.0273 0.907081C21.2763 0.907081 20.5446 1.08028 20.1788 1.85008C19.8322 2.60063 20.121 3.21646 20.6602 3.77456C20.6987 3.81305 20.6987 3.89003 20.7372 3.96701Z"/>
<path d="M11.8221 14.5709C15.3843 18.4584 18.9465 22.3458 20.5639 27.5227C20.6794 27.8691 20.7372 28.2155 20.5639 28.6581C20.2558 28.2732 20.2558 27.8498 20.1403 27.465C19.3123 24.7707 17.7334 22.4805 16.0967 20.2289C14.6719 18.2467 12.9004 16.5339 11.36 14.6671C11.1097 14.3592 10.6283 13.9936 10.9172 13.6472C11.1482 13.3777 11.6296 13.7626 11.9377 13.9743C13.3433 14.9173 14.5563 16.0913 15.8272 17.1882C18.4459 19.4399 21.1223 21.653 23.9528 23.6352C26.5137 25.425 29.3057 26.7336 32.2517 27.6959C33.7536 28.177 35.371 28.0423 36.9306 28.1578C37.7008 28.2155 38.471 28.1578 39.299 28.1578C39.376 28.0231 39.2027 27.9461 39.1064 27.8114C38.5673 27.0223 38.6636 25.348 39.299 24.6552C39.4338 24.5012 39.6071 24.3665 39.7611 24.2703C39.8959 24.1933 40.0884 23.9624 40.2232 24.1933C40.3388 24.3858 40.127 24.5205 39.9729 24.5975C39.2605 25.0016 39.145 25.6944 39.0487 26.4065C38.9909 26.8684 39.1835 27.234 39.5686 27.5227C40.3388 28.1 41.1667 28.5619 42.1102 28.7928C42.4761 28.8891 42.8227 29.0238 43.1692 29.197C41.5518 28.9276 39.9151 28.8121 38.2977 28.7544C35.6213 28.6581 32.9834 28.2925 30.4417 27.5034C27.3609 26.5604 24.7615 24.7514 22.1813 22.8847C18.7924 20.4406 15.7694 17.5346 12.5153 14.9366C12.3035 14.7634 12.0917 14.6094 11.8799 14.4362C11.8414 14.4747 11.7836 14.5132 11.7451 14.5517L11.8221 14.5709Z"/>
<path d="M20.2943 29.2932C19.5626 30.2939 18.6769 30.9483 17.5986 31.3909C15.3265 32.3147 12.9197 32.738 10.5321 33.2192C7.66307 33.7965 4.77482 34.2006 1.88657 34.5663C1.69402 34.5855 1.46297 34.5663 1.30893 34.8357C2.88783 34.9897 4.44749 35.1436 6.00714 35.2591C11.5333 35.7017 17.0787 35.4708 22.6049 35.8365C26.2634 36.0674 29.8833 36.6062 33.4262 37.6262C34.0809 37.8187 34.2542 37.9149 34.7163 38.3768C33.7536 38.1458 32.9256 37.9726 32.0976 37.7417C27.4187 36.4908 22.6434 36.1444 17.8104 36.0481C14.4601 35.9712 11.1097 36.1444 7.75934 35.8365C5.468 35.6248 3.17666 35.3938 0.885316 35.1629C0.692766 35.1436 0.442451 35.1629 0.403941 34.8935C0.365431 34.5663 0.615746 34.4508 0.846806 34.3738C1.69402 34.1044 2.59901 34.0467 3.46548 33.9505C6.89287 33.5656 10.2432 32.7958 13.6321 32.1992C15.1147 31.949 16.5204 31.3524 17.9067 30.8136C18.5999 30.5441 19.1583 29.986 19.7167 29.5049C19.8322 29.4087 19.89 29.2162 20.2366 29.3125L20.2943 29.2932Z"/>
<path d="M43.5351 25.5212C42.4183 24.8669 41.2823 24.328 40.1462 23.8084C38.0089 22.8462 35.7753 22.1149 33.561 21.3066C30.6535 20.2289 27.7267 19.2282 24.877 17.9772C23.3751 17.3229 22.1621 16.3029 21.7192 14.6094C21.5459 13.9166 21.5459 13.243 22.1043 12.5502C22.2006 13.1276 21.9117 13.5702 22.0273 14.0513C22.3161 15.4177 23.1441 16.3607 24.2994 17.0535C25.7242 17.9003 27.3031 18.3621 28.8243 18.9587C32.5212 20.4021 36.2952 21.5953 39.9344 23.1926C41.1475 23.7315 42.3413 24.2896 43.3425 25.1748C43.4196 25.2518 43.5543 25.2903 43.5158 25.502L43.5351 25.5212Z"/>
<path d="M69.9337 39.5507C71.2815 38.2805 72.5331 37.0489 73.7654 35.8365C72.8797 37.453 71.4355 38.5692 70.0299 39.8009C72.071 40.4745 74.112 40.8209 76.1723 41.071C76.7307 41.1288 77.3083 41.1288 77.8667 41.225C78.3481 41.3212 78.5021 41.1865 78.6562 40.7054C79.8307 37.0104 80.4469 33.2192 81.0438 29.4087C81.1015 29.0623 81.14 28.7159 81.2748 28.3695C81.4674 28.7159 81.3904 29.0815 81.3519 29.4472C80.909 33.1422 80.3506 36.8179 79.1953 40.359C78.7717 41.6292 78.6562 41.6676 77.3276 41.5137C75.1517 41.2827 72.9952 40.9171 70.8579 40.513C69.5293 40.2628 69.3753 40.1088 69.6641 38.8386C70.0877 36.9334 70.6268 35.0667 71.2045 33.1999C71.1082 35.3361 70.2802 37.3376 69.9529 39.57L69.9337 39.5507Z"/>
<path d="M36.1027 14.0128C35.0629 14.2245 34.1387 14.3785 33.1759 14.3592C34.0424 13.9743 34.9089 13.6087 35.7946 13.2045C35.1592 12.377 34.5238 11.5687 33.8883 10.7604C34.8318 11.2416 35.6405 11.8766 36.4493 12.6272C36.8536 11.6457 37.2387 10.7219 37.6238 9.79819C37.6431 9.79819 37.6816 9.79819 37.7008 9.81744C37.5853 10.6257 37.5275 11.434 37.3542 12.2423C37.2387 12.7811 37.412 12.7619 37.8164 12.6464C38.6443 12.3962 39.5108 12.3578 40.4158 12.3578C39.5878 12.6849 38.7598 13.0698 37.9126 13.3585C37.4505 13.5124 37.3927 13.6087 37.7201 14.0128C38.2592 14.6671 38.7406 15.3792 39.145 16.3222C38.4518 15.7448 37.8549 15.283 37.3157 14.7826C36.8921 14.3592 36.7573 14.5517 36.6226 14.9943C36.353 15.8796 35.8909 16.6878 35.448 17.4961C35.5058 16.3414 35.8138 15.2252 36.1219 14.0128H36.1027Z"/>
<path d="M32.3672 50.0584C33.2337 50.4048 33.8498 50.8667 34.4467 51.3285C34.8511 51.6365 34.9474 51.521 35.0244 51.0784C35.1784 50.3471 35.371 49.635 35.6791 48.9229C35.6791 49.6158 35.7176 50.3086 35.6791 51.0014C35.6213 51.6749 35.8909 51.6365 36.3722 51.444C37.0076 51.1746 37.6816 50.9629 38.3555 50.7897C37.7008 51.444 36.8729 51.8482 36.0834 52.3678C36.8729 53.0028 37.7201 53.5417 38.4903 54.3307C37.489 54.1575 36.7573 53.6572 35.9871 53.2915C35.6213 53.1183 35.5058 53.1376 35.4287 53.5609C35.2747 54.4077 34.9859 55.216 34.6585 56.1013C34.4082 55.1005 34.6585 54.1575 34.5815 53.1761C33.7343 53.4262 32.9063 53.6764 32.0784 53.9074C32.7716 53.2145 33.6573 52.8489 34.5238 52.31C33.715 51.6557 33.0989 50.9244 32.4057 50.0584H32.3672Z"/>
<path d="M71.6281 30.8136C72.071 29.2355 72.4175 27.7536 73.0337 26.2333C73.2455 26.5027 73.1685 26.6759 73.1107 26.8299C72.7834 28.0423 72.4561 29.2547 72.0902 30.4479C71.9747 30.8328 71.9747 31.0445 72.3405 31.2754C72.9374 31.6796 72.9182 31.7565 72.2828 32.0837C71.7436 32.3531 71.2045 32.6803 70.6654 32.969C70.3958 33.1229 70.2032 33.1422 70.1455 32.7573C70.0684 32.1414 69.8951 31.5449 70.184 30.9483C70.3188 30.6596 70.184 30.4864 70.0107 30.2939C68.9709 29.1008 67.546 28.6966 66.0634 28.4849C64.8311 28.3117 63.6565 28.5427 62.5397 29.0623C62.3857 29.12 62.2509 29.197 62.0969 29.2547C61.9428 29.3125 61.7118 29.4857 61.6155 29.2932C61.4807 29.0238 61.7888 28.966 61.9621 28.8891C63.5025 28.0808 65.1007 27.7151 66.8529 28.1C68.1622 28.3887 69.3945 28.8121 70.261 29.9283C70.6076 30.3709 71.1467 30.4671 71.6088 30.8713L71.6281 30.8136ZM72.2057 31.6796C71.8206 31.4294 71.5511 31.2369 71.243 31.083C71.0504 30.9868 70.8001 30.7173 70.6654 30.852C70.4535 31.0637 70.2995 31.4486 70.3765 31.7565C70.4343 31.9875 70.3765 32.2954 70.5498 32.5071C71.089 32.2377 71.5896 31.9875 72.2057 31.6796Z"/>
<path d="M76.4996 35.9712C76.076 35.2976 76.0952 34.5471 75.8834 33.7773C75.3828 34.1814 74.9207 34.5663 74.4393 34.9512C74.3238 35.0474 74.189 35.2206 74.035 35.0859C73.8424 34.9127 74.0157 34.7587 74.1312 34.624C74.5356 34.1622 74.9399 33.7003 75.3828 33.1999C74.8437 32.9305 74.266 32.7765 73.7654 32.2954C74.3238 32.1222 74.8052 32.2377 75.2673 32.3724C75.5754 32.4494 75.7294 32.4301 75.7101 32.0452C75.7101 31.4679 75.7101 30.9675 75.4021 30.3902C74.7474 29.1393 74.3623 27.7344 73.4381 26.5989C74.6704 27.6189 75.248 29.0045 75.6909 30.4479C75.9797 30.4864 75.8642 30.1207 76.1338 30.14C76.1915 30.6788 76.2685 31.1985 76.3263 31.7373C76.3648 32.1414 76.3841 32.3916 76.9039 32.103C77.3276 31.8528 77.8089 31.7373 78.3481 31.6988C78.0015 32.0067 77.6549 32.3531 77.2698 32.6033C76.7884 32.9112 76.9425 33.0652 77.3276 33.2769C77.6356 33.4501 77.963 33.6041 78.2133 34.0082C77.5586 34.0659 77.0772 33.681 76.4996 33.6618V35.9904V35.9712Z"/>
<path d="M37.4698 46.6713C36.0449 46.4211 34.6393 46.3056 33.2529 46.2094C30.0951 45.9977 27.0721 46.4211 24.3186 48.1147C23.7025 48.4996 23.1441 48.9807 22.6627 49.5388C22.2583 50.0007 21.931 50.4625 22.1428 51.1938C21.6807 50.9821 21.7192 50.655 21.777 50.3471C21.9117 49.5773 22.4124 49.0384 22.9515 48.5573C24.9733 46.7868 27.3994 46.0555 29.9988 45.7283C32.3865 45.4396 34.7163 45.7475 37.0269 46.3826C37.1809 46.4211 37.3542 46.4211 37.4698 46.6713Z"/>
<path d="M36.9499 31.7565C36.3722 31.5256 35.9871 31.2562 36.0834 30.6981C36.1797 30.1207 36.6803 29.986 37.1424 29.8706C37.8549 29.6974 38.5288 30.0053 39.2027 30.1785C39.3182 30.1977 39.4338 30.2747 39.3953 30.4094C39.3375 30.6019 39.1835 30.5249 39.0679 30.5056C38.5673 30.4287 38.0667 30.3902 37.5853 30.2939C37.3735 30.2555 37.1809 30.2939 36.9884 30.3517C36.7766 30.4287 36.5263 30.4671 36.4685 30.7366C36.43 31.0252 36.6033 31.2177 36.8344 31.3332C37.2194 31.5064 37.6431 31.6603 38.0474 31.8143C38.2592 31.8913 38.5095 31.8913 38.6636 32.1414C38.4325 32.3531 38.1629 32.2377 37.9126 32.1799C37.3542 32.0645 36.8344 32.0837 36.3337 32.4109C35.8331 32.738 35.8138 33.1037 36.2374 33.5271C36.6225 33.9312 37.1617 33.9889 37.6431 34.1622C37.7971 34.2199 38.0859 34.1622 38.0089 34.4316C37.9511 34.6818 37.7008 34.5855 37.5468 34.5663C37.1039 34.5086 36.6611 34.3931 36.1989 34.5663C35.8523 34.701 35.448 34.8165 35.4287 35.2399C35.3902 35.6633 35.7753 35.8557 36.1219 35.9904C36.6033 36.1636 37.0847 36.3176 37.6816 36.5293C36.9499 36.741 35.5635 36.3176 35.2362 35.8557C34.9089 35.4131 35.0244 34.8165 35.525 34.4893C35.7561 34.3354 36.0064 34.2584 36.2952 34.1237C35.9871 33.7388 35.4095 33.4309 35.5828 32.7958C35.7561 32.1992 36.3145 32.026 36.9499 31.7565Z"/>
<path d="M29.8641 52.0214C25.2429 52.0214 20.6602 51.9059 16.6936 54.8696C16.7322 54.196 17.1943 53.9651 17.5794 53.6957C18.8117 52.8874 20.1788 52.387 21.6229 52.0983C24.2994 51.5402 26.9951 51.521 29.71 51.8866C29.7485 51.8866 29.7678 51.9444 29.8641 52.0406V52.0214Z"/>
<path d="M34.0424 8.33559C33.1952 8.02767 32.3479 7.71975 31.5007 7.45032C28.3429 6.46884 25.1466 5.71829 21.8347 5.52584C21.6229 5.52584 21.2956 5.56433 21.3148 5.23717C21.3148 4.96774 21.6422 5.04472 21.8155 5.04472C24.3571 5.10245 26.8218 5.64131 29.2479 6.31488C30.9231 6.77675 32.502 7.50806 34.0424 8.33559Z"/>
<path d="M30.5572 33.5271C29.5367 32.5648 29.6715 31.8335 30.9423 31.16C30.6343 30.852 30.2877 30.5826 30.3454 30.0822C30.3647 29.8321 30.461 29.6011 30.6535 29.4087C31.1734 28.8891 32.4635 28.7928 33.0219 29.274C33.0989 29.3317 33.1759 29.4087 33.0989 29.4857C33.0604 29.5434 32.9256 29.5626 32.8678 29.5434C32.4827 29.4664 32.1169 29.3317 31.7318 29.3509C31.3082 29.3702 30.8653 29.4664 30.7498 29.9283C30.6343 30.4094 30.9808 30.6788 31.3659 30.8713C31.6355 31.006 31.9243 31.083 32.1747 31.2177C32.2902 31.2754 32.4635 31.2947 32.4057 31.4871C32.3479 31.6411 32.2132 31.6603 32.0591 31.6218C31.7318 31.5256 31.3852 31.4871 31.0386 31.5833C30.6343 31.6796 30.2492 31.8913 30.1914 32.3531C30.1336 32.815 30.4995 33.046 30.8653 33.1999C31.1349 33.3154 31.4237 33.3731 31.7125 33.4693C31.8666 33.5078 32.0591 33.5463 32.0399 33.7388C32.0206 33.9505 31.8088 33.9312 31.6548 33.912C31.2697 33.8735 30.8846 33.835 30.5187 34.0082C30.2106 34.1429 29.9218 34.2776 29.8833 34.6433C29.8448 35.0089 30.1336 35.2206 30.4224 35.3553C30.7498 35.5285 31.0579 35.7017 31.443 35.721C31.5585 35.721 31.674 35.798 31.6548 35.9327C31.6548 36.0674 31.5007 36.0866 31.4045 36.1059C30.7883 36.2021 29.7485 35.6055 29.556 35.0282C29.3827 34.4893 29.6715 34.0274 30.5572 33.5078V33.5271Z"/>
<path d="M28.1311 28.0038C27.8808 28.254 27.7075 28.0808 27.5342 28.0038C27.2454 27.9076 26.9566 27.8883 26.6677 27.9461C26.2441 28.0231 25.8975 28.1963 25.859 28.6389C25.8013 29.1008 26.0901 29.3894 26.4944 29.6011C26.764 29.7358 27.3031 29.6589 27.2261 30.0438C27.1298 30.4287 26.687 30.1207 26.3982 30.1207C26.0131 30.1207 25.628 30.2362 25.3006 30.4479C24.8 30.7943 24.7807 31.4486 25.2814 31.8335C25.5509 32.0452 25.8398 32.2184 26.1864 32.2954C26.3211 32.3339 26.5522 32.3531 26.5137 32.5648C26.4559 32.7765 26.2441 32.815 26.0708 32.7573C25.7242 32.6418 25.4162 32.6418 25.0696 32.7573C24.5689 32.9497 24.1068 33.1999 24.1261 33.7773C24.1261 34.3738 24.6652 34.5663 25.1466 34.7203C25.2814 34.7587 25.4739 34.6818 25.5702 34.8742C24.8192 35.1244 24.0876 34.7972 23.818 34.1237C23.5292 33.3539 23.9528 32.7573 25.1851 32.2569C24.7615 31.8335 24.3379 31.4101 24.6074 30.7173C24.8385 30.1015 25.3584 29.909 25.9938 29.7551C25.7627 29.3125 25.3776 28.966 25.5124 28.4464C25.5894 28.1963 25.705 27.9846 25.9168 27.8306C26.5907 27.311 27.3802 27.3495 28.1696 27.9653L28.1311 28.0038Z"/>
<path d="M29.787 43.977C29.4404 43.2072 29.8833 42.6876 30.2684 42.168C31.2504 40.8016 32.5597 39.8201 34.0231 38.9926C35.1207 38.3768 36.2952 38.0881 37.412 37.5877C37.5275 37.53 37.6623 37.4145 37.7393 37.6262C37.7971 37.7802 37.6816 37.8764 37.5468 37.9341C36.9499 38.2036 36.353 38.4922 35.7561 38.7617C33.8691 39.57 32.1554 40.5899 30.8075 42.1872C30.3647 42.7261 29.9988 43.3035 29.7678 43.9963L29.787 43.977Z"/>
<path d="M32.2324 13.8396C31.2697 13.474 30.3454 13.1853 29.4212 12.9351C27.3224 12.377 25.2043 11.9921 23.0478 11.9344C22.8552 11.9344 22.5472 11.9729 22.5664 11.7034C22.5664 11.434 22.8745 11.511 23.067 11.4917C26.2634 11.28 29.1709 12.2423 32.0206 13.5317C32.0784 13.5509 32.1361 13.5894 32.1939 13.6472C32.2132 13.6664 32.2132 13.7241 32.2709 13.8396H32.2324Z"/>
<path d="M23.1441 31.006C22.6434 31.2947 22.3161 31.1215 22.0465 30.8905C21.6229 30.4864 21.4496 29.986 21.5652 29.4087C21.6999 28.8121 22.2391 28.4657 23.3559 28.254C22.9323 27.5419 22.4124 26.8106 23.2596 26.0986C23.6062 25.8099 24.0298 25.6367 24.4727 25.9831C24.4341 26.0601 24.3956 26.1178 24.3956 26.1178C23.8565 26.0793 23.4521 26.2333 23.2596 26.7529C23.067 27.2725 23.4136 27.6574 23.6832 28.0423C23.7795 28.177 24.0876 28.1578 24.0298 28.408C23.9528 28.6389 23.7217 28.6196 23.5099 28.6196C23.3366 28.6196 23.1633 28.6774 22.9708 28.7159C22.4124 28.8121 21.9503 29.1008 21.8925 29.6974C21.8347 30.2939 22.1428 30.6788 22.7397 30.8328C22.8167 30.852 22.8938 30.9098 23.1056 30.9868L23.1441 31.006Z"/>
<path d="M73.5343 26.1948C75.999 26.0023 78.3673 26.4065 80.6202 27.5034C78.2903 26.9453 75.9412 26.4642 73.5343 26.1948Z"/>
<path d="M21.1608 6.19941C20.6217 8.50879 21.8732 9.74046 23.5677 10.7604C22.6049 10.8374 21.3919 9.89442 20.8912 8.72048C20.4676 7.739 20.5446 6.75751 21.1608 6.19941Z"/>
<path d="M21.1223 34.0659C20.044 33.9697 19.6397 33.0075 20.1788 32.0837C20.5446 31.4871 21.1415 31.2754 21.7385 31.083C21.9117 31.0252 22.008 31.083 22.0273 31.2369C22.0465 31.3717 22.0658 31.5064 21.8925 31.5641C21.854 31.5641 21.7962 31.5641 21.7577 31.5641C21.0838 31.6411 20.5254 31.872 20.3136 32.6033C20.121 33.3154 20.6602 33.6425 21.103 34.0467L21.1223 34.0659Z"/>
<path d="M81.063 28.1385C79.85 29.1008 78.6754 30.1207 77.5394 31.1407C78.5021 29.8898 79.5611 28.7351 81.063 28.1385Z"/>
<path d="M66.8914 32.969C66.8143 33.3346 66.6025 33.5463 66.2367 33.5463C65.8709 33.5463 65.6783 33.3154 65.6976 32.969C65.7168 32.6033 65.9864 32.4109 66.3522 32.3916C66.7181 32.3916 66.8721 32.6226 66.9106 32.9497L66.8914 32.969Z"/>
<path d="M78.1555 40.3205C77.7704 39.339 77.3853 38.3383 77.0002 37.3568L77.212 37.2798C77.5779 38.2805 77.963 39.262 78.3288 40.2628C78.2711 40.282 78.2133 40.3013 78.1748 40.3205H78.1555Z"/>
</mask>
<path d="M69.8951 32.969C69.1249 35.8942 67.6808 38.2228 65.2162 39.8201C64.446 40.3205 63.7721 40.9941 62.8863 41.3597C62.636 41.4559 62.6168 41.7639 62.5012 41.9948C61.4615 44.2849 60.3062 46.4981 58.8235 48.538C57.0906 50.9052 54.8377 52.5795 52.2576 53.8881C51.4489 54.3115 50.5824 54.5617 49.7159 54.8696C44.7289 56.6401 39.4723 57.2175 34.312 58.2567C29.9411 59.1419 25.5317 59.854 21.0838 60.2774C18.9272 60.4891 16.7514 60.4314 14.6141 60.0657C14.229 60.008 13.8632 59.8733 13.5166 59.7C12.7079 59.2574 12.4768 58.5261 12.8619 57.6793C13.2278 56.9288 13.7669 56.3514 14.5756 55.8896C14.5371 56.236 14.3253 56.3899 14.1712 56.5631C13.6706 57.1982 12.9004 57.7948 13.247 58.6993C13.5743 59.5653 14.5371 59.5461 15.3073 59.6616C18.0415 60.0849 20.7564 59.9117 23.4907 59.6038C29.6137 58.9303 35.6405 57.6409 41.6866 56.5824C44.8059 56.0435 47.8289 55.1775 50.7557 54.0806C54.7607 52.5795 57.7838 49.8852 59.8826 46.1132C60.8068 44.4581 61.4807 42.6876 62.482 41.0903C62.6553 40.8209 62.6938 40.1281 63.3484 40.5707C63.3677 40.5707 63.464 40.5129 63.5217 40.4745C64.9466 39.3775 66.5448 38.5115 67.6038 36.9719C68.1044 36.2406 68.5665 35.49 68.8554 34.6433C69.0479 34.0659 69.2212 33.4116 69.8759 32.9882L69.8951 32.969Z" fill="black"/>
<path d="M20.7372 3.96701C20.0055 3.65909 19.5819 2.92779 19.6589 2.19648C19.7552 1.3882 20.4099 0.676143 21.2186 0.502939C22.2968 0.272001 23.3559 0.46445 24.3956 0.733877C29.2671 2.00404 33.8498 4.02474 38.2977 6.37261C40.8201 7.70051 43.3233 9.04765 45.8264 10.414C49.3886 12.3385 52.5272 14.8403 55.2614 17.804C57.803 20.5561 59.5167 23.8084 60.7683 27.311C60.9223 27.7536 61.0764 28.1963 61.2497 28.7159C60.8646 28.6581 60.7875 28.3887 60.6913 28.1578C59.9018 26.4257 59.2471 24.6167 58.3422 22.9232C55.839 18.2852 52.0458 14.9366 47.7134 12.1076C45.3065 10.5487 42.7649 9.2016 40.2425 7.81598C39.5493 7.43108 38.9717 6.87298 38.2207 6.56506C33.6573 4.67907 29.2286 2.46591 24.3956 1.25349C23.6254 1.06104 22.836 0.887836 22.0273 0.907081C21.2763 0.907081 20.5446 1.08028 20.1788 1.85008C19.8322 2.60063 20.121 3.21646 20.6602 3.77456C20.6987 3.81305 20.6987 3.89003 20.7372 3.96701Z" fill="black"/>
<path d="M11.8221 14.5709C15.3843 18.4584 18.9465 22.3458 20.5639 27.5227C20.6794 27.8691 20.7372 28.2155 20.5639 28.6581C20.2558 28.2732 20.2558 27.8498 20.1403 27.465C19.3123 24.7707 17.7334 22.4805 16.0967 20.2289C14.6719 18.2467 12.9004 16.5339 11.36 14.6671C11.1097 14.3592 10.6283 13.9936 10.9172 13.6472C11.1482 13.3777 11.6296 13.7626 11.9377 13.9743C13.3433 14.9173 14.5563 16.0913 15.8272 17.1882C18.4459 19.4399 21.1223 21.653 23.9528 23.6352C26.5137 25.425 29.3057 26.7336 32.2517 27.6959C33.7536 28.177 35.371 28.0423 36.9306 28.1578C37.7008 28.2155 38.471 28.1578 39.299 28.1578C39.376 28.0231 39.2027 27.9461 39.1064 27.8114C38.5673 27.0223 38.6636 25.348 39.299 24.6552C39.4338 24.5012 39.6071 24.3665 39.7611 24.2703C39.8959 24.1933 40.0884 23.9624 40.2232 24.1933C40.3388 24.3858 40.127 24.5205 39.9729 24.5975C39.2605 25.0016 39.145 25.6944 39.0487 26.4065C38.9909 26.8684 39.1835 27.234 39.5686 27.5227C40.3388 28.1 41.1667 28.5619 42.1102 28.7928C42.4761 28.8891 42.8227 29.0238 43.1692 29.197C41.5518 28.9276 39.9151 28.8121 38.2977 28.7544C35.6213 28.6581 32.9834 28.2925 30.4417 27.5034C27.3609 26.5604 24.7615 24.7514 22.1813 22.8847C18.7924 20.4406 15.7694 17.5346 12.5153 14.9366C12.3035 14.7634 12.0917 14.6094 11.8799 14.4362C11.8414 14.4747 11.7836 14.5132 11.7451 14.5517L11.8221 14.5709Z" fill="black"/>
<path d="M20.2943 29.2932C19.5626 30.2939 18.6769 30.9483 17.5986 31.3909C15.3265 32.3147 12.9197 32.738 10.5321 33.2192C7.66307 33.7965 4.77482 34.2006 1.88657 34.5663C1.69402 34.5855 1.46297 34.5663 1.30893 34.8357C2.88783 34.9897 4.44749 35.1436 6.00714 35.2591C11.5333 35.7017 17.0787 35.4708 22.6049 35.8365C26.2634 36.0674 29.8833 36.6062 33.4262 37.6262C34.0809 37.8187 34.2542 37.9149 34.7163 38.3768C33.7536 38.1458 32.9256 37.9726 32.0976 37.7417C27.4187 36.4908 22.6434 36.1444 17.8104 36.0481C14.4601 35.9712 11.1097 36.1444 7.75934 35.8365C5.468 35.6248 3.17666 35.3938 0.885316 35.1629C0.692766 35.1436 0.442451 35.1629 0.403941 34.8935C0.365431 34.5663 0.615746 34.4508 0.846806 34.3738C1.69402 34.1044 2.59901 34.0467 3.46548 33.9505C6.89287 33.5656 10.2432 32.7958 13.6321 32.1992C15.1147 31.949 16.5204 31.3524 17.9067 30.8136C18.5999 30.5441 19.1583 29.986 19.7167 29.5049C19.8322 29.4087 19.89 29.2162 20.2366 29.3125L20.2943 29.2932Z" fill="black"/>
<path d="M43.5351 25.5212C42.4183 24.8669 41.2823 24.328 40.1462 23.8084C38.0089 22.8462 35.7753 22.1149 33.561 21.3066C30.6535 20.2289 27.7267 19.2282 24.877 17.9772C23.3751 17.3229 22.1621 16.3029 21.7192 14.6094C21.5459 13.9166 21.5459 13.243 22.1043 12.5502C22.2006 13.1276 21.9117 13.5702 22.0273 14.0513C22.3161 15.4177 23.1441 16.3607 24.2994 17.0535C25.7242 17.9003 27.3031 18.3621 28.8243 18.9587C32.5212 20.4021 36.2952 21.5953 39.9344 23.1926C41.1475 23.7315 42.3413 24.2896 43.3425 25.1748C43.4196 25.2518 43.5543 25.2903 43.5158 25.502L43.5351 25.5212Z" fill="black"/>
<path d="M69.9337 39.5507C71.2815 38.2805 72.5331 37.0489 73.7654 35.8365C72.8797 37.453 71.4355 38.5692 70.0299 39.8009C72.071 40.4745 74.112 40.8209 76.1723 41.071C76.7307 41.1288 77.3083 41.1288 77.8667 41.225C78.3481 41.3212 78.5021 41.1865 78.6562 40.7054C79.8307 37.0104 80.4469 33.2192 81.0438 29.4087C81.1015 29.0623 81.14 28.7159 81.2748 28.3695C81.4674 28.7159 81.3904 29.0815 81.3519 29.4472C80.909 33.1422 80.3506 36.8179 79.1953 40.359C78.7717 41.6292 78.6562 41.6676 77.3276 41.5137C75.1517 41.2827 72.9952 40.9171 70.8579 40.513C69.5293 40.2628 69.3753 40.1088 69.6641 38.8386C70.0877 36.9334 70.6268 35.0667 71.2045 33.1999C71.1082 35.3361 70.2802 37.3376 69.9529 39.57L69.9337 39.5507Z" fill="black"/>
<path d="M36.1027 14.0128C35.0629 14.2245 34.1387 14.3785 33.1759 14.3592C34.0424 13.9743 34.9089 13.6087 35.7946 13.2045C35.1592 12.377 34.5238 11.5687 33.8883 10.7604C34.8318 11.2416 35.6405 11.8766 36.4493 12.6272C36.8536 11.6457 37.2387 10.7219 37.6238 9.79819C37.6431 9.79819 37.6816 9.79819 37.7008 9.81744C37.5853 10.6257 37.5275 11.434 37.3542 12.2423C37.2387 12.7811 37.412 12.7619 37.8164 12.6464C38.6443 12.3962 39.5108 12.3578 40.4158 12.3578C39.5878 12.6849 38.7598 13.0698 37.9126 13.3585C37.4505 13.5124 37.3927 13.6087 37.7201 14.0128C38.2592 14.6671 38.7406 15.3792 39.145 16.3222C38.4518 15.7448 37.8549 15.283 37.3157 14.7826C36.8921 14.3592 36.7573 14.5517 36.6226 14.9943C36.353 15.8796 35.8909 16.6878 35.448 17.4961C35.5058 16.3414 35.8138 15.2252 36.1219 14.0128H36.1027Z" fill="black"/>
<path d="M32.3672 50.0584C33.2337 50.4048 33.8498 50.8667 34.4467 51.3285C34.8511 51.6365 34.9474 51.521 35.0244 51.0784C35.1784 50.3471 35.371 49.635 35.6791 48.9229C35.6791 49.6158 35.7176 50.3086 35.6791 51.0014C35.6213 51.6749 35.8909 51.6365 36.3722 51.444C37.0076 51.1746 37.6816 50.9629 38.3555 50.7897C37.7008 51.444 36.8729 51.8482 36.0834 52.3678C36.8729 53.0028 37.7201 53.5417 38.4903 54.3307C37.489 54.1575 36.7573 53.6572 35.9871 53.2915C35.6213 53.1183 35.5058 53.1376 35.4287 53.5609C35.2747 54.4077 34.9859 55.216 34.6585 56.1013C34.4082 55.1005 34.6585 54.1575 34.5815 53.1761C33.7343 53.4262 32.9063 53.6764 32.0784 53.9074C32.7716 53.2145 33.6573 52.8489 34.5238 52.31C33.715 51.6557 33.0989 50.9244 32.4057 50.0584H32.3672Z" fill="black"/>
<path d="M71.6281 30.8136C72.071 29.2355 72.4175 27.7536 73.0337 26.2333C73.2455 26.5027 73.1685 26.6759 73.1107 26.8299C72.7834 28.0423 72.4561 29.2547 72.0902 30.4479C71.9747 30.8328 71.9747 31.0445 72.3405 31.2754C72.9374 31.6796 72.9182 31.7565 72.2828 32.0837C71.7436 32.3531 71.2045 32.6803 70.6654 32.969C70.3958 33.1229 70.2032 33.1422 70.1455 32.7573C70.0684 32.1414 69.8951 31.5449 70.184 30.9483C70.3188 30.6596 70.184 30.4864 70.0107 30.2939C68.9709 29.1008 67.546 28.6966 66.0634 28.4849C64.8311 28.3117 63.6565 28.5427 62.5397 29.0623C62.3857 29.12 62.2509 29.197 62.0969 29.2547C61.9428 29.3125 61.7118 29.4857 61.6155 29.2932C61.4807 29.0238 61.7888 28.966 61.9621 28.8891C63.5025 28.0808 65.1007 27.7151 66.8529 28.1C68.1622 28.3887 69.3945 28.8121 70.261 29.9283C70.6076 30.3709 71.1467 30.4671 71.6088 30.8713L71.6281 30.8136ZM72.2057 31.6796C71.8206 31.4294 71.5511 31.2369 71.243 31.083C71.0504 30.9868 70.8001 30.7173 70.6654 30.852C70.4535 31.0637 70.2995 31.4486 70.3765 31.7565C70.4343 31.9875 70.3765 32.2954 70.5498 32.5071C71.089 32.2377 71.5896 31.9875 72.2057 31.6796Z" fill="black"/>
<path d="M76.4996 35.9712C76.076 35.2976 76.0952 34.5471 75.8834 33.7773C75.3828 34.1814 74.9207 34.5663 74.4393 34.9512C74.3238 35.0474 74.189 35.2206 74.035 35.0859C73.8424 34.9127 74.0157 34.7587 74.1312 34.624C74.5356 34.1622 74.9399 33.7003 75.3828 33.1999C74.8437 32.9305 74.266 32.7765 73.7654 32.2954C74.3238 32.1222 74.8052 32.2377 75.2673 32.3724C75.5754 32.4494 75.7294 32.4301 75.7101 32.0452C75.7101 31.4679 75.7101 30.9675 75.4021 30.3902C74.7474 29.1393 74.3623 27.7344 73.4381 26.5989C74.6704 27.6189 75.248 29.0045 75.6909 30.4479C75.9797 30.4864 75.8642 30.1207 76.1338 30.14C76.1915 30.6788 76.2685 31.1985 76.3263 31.7373C76.3648 32.1414 76.3841 32.3916 76.9039 32.103C77.3276 31.8528 77.8089 31.7373 78.3481 31.6988C78.0015 32.0067 77.6549 32.3531 77.2698 32.6033C76.7884 32.9112 76.9425 33.0652 77.3276 33.2769C77.6356 33.4501 77.963 33.6041 78.2133 34.0082C77.5586 34.0659 77.0772 33.681 76.4996 33.6618V35.9904V35.9712Z" fill="black"/>
<path d="M37.4698 46.6713C36.0449 46.4211 34.6393 46.3056 33.2529 46.2094C30.0951 45.9977 27.0721 46.4211 24.3186 48.1147C23.7025 48.4996 23.1441 48.9807 22.6627 49.5388C22.2583 50.0007 21.931 50.4625 22.1428 51.1938C21.6807 50.9821 21.7192 50.655 21.777 50.3471C21.9117 49.5773 22.4124 49.0384 22.9515 48.5573C24.9733 46.7868 27.3994 46.0555 29.9988 45.7283C32.3865 45.4396 34.7163 45.7475 37.0269 46.3826C37.1809 46.4211 37.3542 46.4211 37.4698 46.6713Z" fill="black"/>
<path d="M36.9499 31.7565C36.3722 31.5256 35.9871 31.2562 36.0834 30.6981C36.1797 30.1207 36.6803 29.986 37.1424 29.8706C37.8549 29.6974 38.5288 30.0053 39.2027 30.1785C39.3182 30.1977 39.4338 30.2747 39.3953 30.4094C39.3375 30.6019 39.1835 30.5249 39.0679 30.5056C38.5673 30.4287 38.0667 30.3902 37.5853 30.2939C37.3735 30.2555 37.1809 30.2939 36.9884 30.3517C36.7766 30.4287 36.5263 30.4671 36.4685 30.7366C36.43 31.0252 36.6033 31.2177 36.8344 31.3332C37.2194 31.5064 37.6431 31.6603 38.0474 31.8143C38.2592 31.8913 38.5095 31.8913 38.6636 32.1414C38.4325 32.3531 38.1629 32.2377 37.9126 32.1799C37.3542 32.0645 36.8344 32.0837 36.3337 32.4109C35.8331 32.738 35.8138 33.1037 36.2374 33.5271C36.6225 33.9312 37.1617 33.9889 37.6431 34.1622C37.7971 34.2199 38.0859 34.1622 38.0089 34.4316C37.9511 34.6818 37.7008 34.5855 37.5468 34.5663C37.1039 34.5086 36.6611 34.3931 36.1989 34.5663C35.8523 34.701 35.448 34.8165 35.4287 35.2399C35.3902 35.6633 35.7753 35.8557 36.1219 35.9904C36.6033 36.1636 37.0847 36.3176 37.6816 36.5293C36.9499 36.741 35.5635 36.3176 35.2362 35.8557C34.9089 35.4131 35.0244 34.8165 35.525 34.4893C35.7561 34.3354 36.0064 34.2584 36.2952 34.1237C35.9871 33.7388 35.4095 33.4309 35.5828 32.7958C35.7561 32.1992 36.3145 32.026 36.9499 31.7565Z" fill="black"/>
<path d="M29.8641 52.0214C25.2429 52.0214 20.6602 51.9059 16.6936 54.8696C16.7322 54.196 17.1943 53.9651 17.5794 53.6957C18.8117 52.8874 20.1788 52.387 21.6229 52.0983C24.2994 51.5402 26.9951 51.521 29.71 51.8866C29.7485 51.8866 29.7678 51.9444 29.8641 52.0406V52.0214Z" fill="black"/>
<path d="M34.0424 8.33559C33.1952 8.02767 32.3479 7.71975 31.5007 7.45032C28.3429 6.46884 25.1466 5.71829 21.8347 5.52584C21.6229 5.52584 21.2956 5.56433 21.3148 5.23717C21.3148 4.96774 21.6422 5.04472 21.8155 5.04472C24.3571 5.10245 26.8218 5.64131 29.2479 6.31488C30.9231 6.77675 32.502 7.50806 34.0424 8.33559Z" fill="black"/>
<path d="M30.5572 33.5271C29.5367 32.5648 29.6715 31.8335 30.9423 31.16C30.6343 30.852 30.2877 30.5826 30.3454 30.0822C30.3647 29.8321 30.461 29.6011 30.6535 29.4087C31.1734 28.8891 32.4635 28.7928 33.0219 29.274C33.0989 29.3317 33.1759 29.4087 33.0989 29.4857C33.0604 29.5434 32.9256 29.5626 32.8678 29.5434C32.4827 29.4664 32.1169 29.3317 31.7318 29.3509C31.3082 29.3702 30.8653 29.4664 30.7498 29.9283C30.6343 30.4094 30.9808 30.6788 31.3659 30.8713C31.6355 31.006 31.9243 31.083 32.1747 31.2177C32.2902 31.2754 32.4635 31.2947 32.4057 31.4871C32.3479 31.6411 32.2132 31.6603 32.0591 31.6218C31.7318 31.5256 31.3852 31.4871 31.0386 31.5833C30.6343 31.6796 30.2492 31.8913 30.1914 32.3531C30.1336 32.815 30.4995 33.046 30.8653 33.1999C31.1349 33.3154 31.4237 33.3731 31.7125 33.4693C31.8666 33.5078 32.0591 33.5463 32.0399 33.7388C32.0206 33.9505 31.8088 33.9312 31.6548 33.912C31.2697 33.8735 30.8846 33.835 30.5187 34.0082C30.2106 34.1429 29.9218 34.2776 29.8833 34.6433C29.8448 35.0089 30.1336 35.2206 30.4224 35.3553C30.7498 35.5285 31.0579 35.7017 31.443 35.721C31.5585 35.721 31.674 35.798 31.6548 35.9327C31.6548 36.0674 31.5007 36.0866 31.4045 36.1059C30.7883 36.2021 29.7485 35.6055 29.556 35.0282C29.3827 34.4893 29.6715 34.0274 30.5572 33.5078V33.5271Z" fill="black"/>
<path d="M28.1311 28.0038C27.8808 28.254 27.7075 28.0808 27.5342 28.0038C27.2454 27.9076 26.9566 27.8883 26.6677 27.9461C26.2441 28.0231 25.8975 28.1963 25.859 28.6389C25.8013 29.1008 26.0901 29.3894 26.4944 29.6011C26.764 29.7358 27.3031 29.6589 27.2261 30.0438C27.1298 30.4287 26.687 30.1207 26.3982 30.1207C26.0131 30.1207 25.628 30.2362 25.3006 30.4479C24.8 30.7943 24.7807 31.4486 25.2814 31.8335C25.5509 32.0452 25.8398 32.2184 26.1864 32.2954C26.3211 32.3339 26.5522 32.3531 26.5137 32.5648C26.4559 32.7765 26.2441 32.815 26.0708 32.7573C25.7242 32.6418 25.4162 32.6418 25.0696 32.7573C24.5689 32.9497 24.1068 33.1999 24.1261 33.7773C24.1261 34.3738 24.6652 34.5663 25.1466 34.7203C25.2814 34.7587 25.4739 34.6818 25.5702 34.8742C24.8192 35.1244 24.0876 34.7972 23.818 34.1237C23.5292 33.3539 23.9528 32.7573 25.1851 32.2569C24.7615 31.8335 24.3379 31.4101 24.6074 30.7173C24.8385 30.1015 25.3584 29.909 25.9938 29.7551C25.7627 29.3125 25.3776 28.966 25.5124 28.4464C25.5894 28.1963 25.705 27.9846 25.9168 27.8306C26.5907 27.311 27.3802 27.3495 28.1696 27.9653L28.1311 28.0038Z" fill="black"/>
<path d="M29.787 43.977C29.4404 43.2072 29.8833 42.6876 30.2684 42.168C31.2504 40.8016 32.5597 39.8201 34.0231 38.9926C35.1207 38.3768 36.2952 38.0881 37.412 37.5877C37.5275 37.53 37.6623 37.4145 37.7393 37.6262C37.7971 37.7802 37.6816 37.8764 37.5468 37.9341C36.9499 38.2036 36.353 38.4922 35.7561 38.7617C33.8691 39.57 32.1554 40.5899 30.8075 42.1872C30.3647 42.7261 29.9988 43.3035 29.7678 43.9963L29.787 43.977Z" fill="black"/>
<path d="M32.2324 13.8396C31.2697 13.474 30.3454 13.1853 29.4212 12.9351C27.3224 12.377 25.2043 11.9921 23.0478 11.9344C22.8552 11.9344 22.5472 11.9729 22.5664 11.7034C22.5664 11.434 22.8745 11.511 23.067 11.4917C26.2634 11.28 29.1709 12.2423 32.0206 13.5317C32.0784 13.5509 32.1361 13.5894 32.1939 13.6472C32.2132 13.6664 32.2132 13.7241 32.2709 13.8396H32.2324Z" fill="black"/>
<path d="M23.1441 31.006C22.6434 31.2947 22.3161 31.1215 22.0465 30.8905C21.6229 30.4864 21.4496 29.986 21.5652 29.4087C21.6999 28.8121 22.2391 28.4657 23.3559 28.254C22.9323 27.5419 22.4124 26.8106 23.2596 26.0986C23.6062 25.8099 24.0298 25.6367 24.4727 25.9831C24.4341 26.0601 24.3956 26.1178 24.3956 26.1178C23.8565 26.0793 23.4521 26.2333 23.2596 26.7529C23.067 27.2725 23.4136 27.6574 23.6832 28.0423C23.7795 28.177 24.0876 28.1578 24.0298 28.408C23.9528 28.6389 23.7217 28.6196 23.5099 28.6196C23.3366 28.6196 23.1633 28.6774 22.9708 28.7159C22.4124 28.8121 21.9503 29.1008 21.8925 29.6974C21.8347 30.2939 22.1428 30.6788 22.7397 30.8328C22.8167 30.852 22.8938 30.9098 23.1056 30.9868L23.1441 31.006Z" fill="black"/>
<path d="M73.5343 26.1948C75.999 26.0023 78.3673 26.4065 80.6202 27.5034C78.2903 26.9453 75.9412 26.4642 73.5343 26.1948Z" fill="black"/>
<path d="M21.1608 6.19941C20.6217 8.50879 21.8732 9.74046 23.5677 10.7604C22.6049 10.8374 21.3919 9.89442 20.8912 8.72048C20.4676 7.739 20.5446 6.75751 21.1608 6.19941Z" fill="black"/>
<path d="M21.1223 34.0659C20.044 33.9697 19.6397 33.0075 20.1788 32.0837C20.5446 31.4871 21.1415 31.2754 21.7385 31.083C21.9117 31.0252 22.008 31.083 22.0273 31.2369C22.0465 31.3717 22.0658 31.5064 21.8925 31.5641C21.854 31.5641 21.7962 31.5641 21.7577 31.5641C21.0838 31.6411 20.5254 31.872 20.3136 32.6033C20.121 33.3154 20.6602 33.6425 21.103 34.0467L21.1223 34.0659Z" fill="black"/>
<path d="M81.063 28.1385C79.85 29.1008 78.6754 30.1207 77.5394 31.1407C78.5021 29.8898 79.5611 28.7351 81.063 28.1385Z" fill="black"/>
<path d="M66.8914 32.969C66.8143 33.3346 66.6025 33.5463 66.2367 33.5463C65.8709 33.5463 65.6783 33.3154 65.6976 32.969C65.7168 32.6033 65.9864 32.4109 66.3522 32.3916C66.7181 32.3916 66.8721 32.6226 66.9106 32.9497L66.8914 32.969Z" fill="black"/>
<path d="M78.1555 40.3205C77.7704 39.339 77.3853 38.3383 77.0002 37.3568L77.212 37.2798C77.5779 38.2805 77.963 39.262 78.3288 40.2628C78.2711 40.282 78.2133 40.3013 78.1748 40.3205H78.1555Z" fill="black"/>
<path d="M69.8951 32.969C69.1249 35.8942 67.6808 38.2228 65.2162 39.8201C64.446 40.3205 63.7721 40.9941 62.8863 41.3597C62.636 41.4559 62.6168 41.7639 62.5012 41.9948C61.4615 44.2849 60.3062 46.4981 58.8235 48.538C57.0906 50.9052 54.8377 52.5795 52.2576 53.8881C51.4489 54.3115 50.5824 54.5617 49.7159 54.8696C44.7289 56.6401 39.4723 57.2175 34.312 58.2567C29.9411 59.1419 25.5317 59.854 21.0838 60.2774C18.9272 60.4891 16.7514 60.4314 14.6141 60.0657C14.229 60.008 13.8632 59.8733 13.5166 59.7C12.7079 59.2574 12.4768 58.5261 12.8619 57.6793C13.2278 56.9288 13.7669 56.3514 14.5756 55.8896C14.5371 56.236 14.3253 56.3899 14.1712 56.5631C13.6706 57.1982 12.9004 57.7948 13.247 58.6993C13.5743 59.5653 14.5371 59.5461 15.3073 59.6616C18.0415 60.0849 20.7564 59.9117 23.4907 59.6038C29.6137 58.9303 35.6405 57.6409 41.6866 56.5824C44.8059 56.0435 47.8289 55.1775 50.7557 54.0806C54.7607 52.5795 57.7838 49.8852 59.8826 46.1132C60.8068 44.4581 61.4807 42.6876 62.482 41.0903C62.6553 40.8209 62.6938 40.1281 63.3484 40.5707C63.3677 40.5707 63.464 40.5129 63.5217 40.4745C64.9466 39.3775 66.5448 38.5115 67.6038 36.9719C68.1044 36.2406 68.5665 35.49 68.8554 34.6433C69.0479 34.0659 69.2212 33.4116 69.8759 32.9882L69.8951 32.969Z" stroke="black" stroke-width="0.8" mask="url(#path-1-outside-1_6_308)"/>
<path d="M20.7372 3.96701C20.0055 3.65909 19.5819 2.92779 19.6589 2.19648C19.7552 1.3882 20.4099 0.676143 21.2186 0.502939C22.2968 0.272001 23.3559 0.46445 24.3956 0.733877C29.2671 2.00404 33.8498 4.02474 38.2977 6.37261C40.8201 7.70051 43.3233 9.04765 45.8264 10.414C49.3886 12.3385 52.5272 14.8403 55.2614 17.804C57.803 20.5561 59.5167 23.8084 60.7683 27.311C60.9223 27.7536 61.0764 28.1963 61.2497 28.7159C60.8646 28.6581 60.7875 28.3887 60.6913 28.1578C59.9018 26.4257 59.2471 24.6167 58.3422 22.9232C55.839 18.2852 52.0458 14.9366 47.7134 12.1076C45.3065 10.5487 42.7649 9.2016 40.2425 7.81598C39.5493 7.43108 38.9717 6.87298 38.2207 6.56506C33.6573 4.67907 29.2286 2.46591 24.3956 1.25349C23.6254 1.06104 22.836 0.887836 22.0273 0.907081C21.2763 0.907081 20.5446 1.08028 20.1788 1.85008C19.8322 2.60063 20.121 3.21646 20.6602 3.77456C20.6987 3.81305 20.6987 3.89003 20.7372 3.96701Z" stroke="black" stroke-width="0.8" mask="url(#path-1-outside-1_6_308)"/>
<path d="M11.8221 14.5709C15.3843 18.4584 18.9465 22.3458 20.5639 27.5227C20.6794 27.8691 20.7372 28.2155 20.5639 28.6581C20.2558 28.2732 20.2558 27.8498 20.1403 27.465C19.3123 24.7707 17.7334 22.4805 16.0967 20.2289C14.6719 18.2467 12.9004 16.5339 11.36 14.6671C11.1097 14.3592 10.6283 13.9936 10.9172 13.6472C11.1482 13.3777 11.6296 13.7626 11.9377 13.9743C13.3433 14.9173 14.5563 16.0913 15.8272 17.1882C18.4459 19.4399 21.1223 21.653 23.9528 23.6352C26.5137 25.425 29.3057 26.7336 32.2517 27.6959C33.7536 28.177 35.371 28.0423 36.9306 28.1578C37.7008 28.2155 38.471 28.1578 39.299 28.1578C39.376 28.0231 39.2027 27.9461 39.1064 27.8114C38.5673 27.0223 38.6636 25.348 39.299 24.6552C39.4338 24.5012 39.6071 24.3665 39.7611 24.2703C39.8959 24.1933 40.0884 23.9624 40.2232 24.1933C40.3388 24.3858 40.127 24.5205 39.9729 24.5975C39.2605 25.0016 39.145 25.6944 39.0487 26.4065C38.9909 26.8684 39.1835 27.234 39.5686 27.5227C40.3388 28.1 41.1667 28.5619 42.1102 28.7928C42.4761 28.8891 42.8227 29.0238 43.1692 29.197C41.5518 28.9276 39.9151 28.8121 38.2977 28.7544C35.6213 28.6581 32.9834 28.2925 30.4417 27.5034C27.3609 26.5604 24.7615 24.7514 22.1813 22.8847C18.7924 20.4406 15.7694 17.5346 12.5153 14.9366C12.3035 14.7634 12.0917 14.6094 11.8799 14.4362C11.8414 14.4747 11.7836 14.5132 11.7451 14.5517L11.8221 14.5709Z" stroke="black" stroke-width="0.8" mask="url(#path-1-outside-1_6_308)"/>
<path d="M20.2943 29.2932C19.5626 30.2939 18.6769 30.9483 17.5986 31.3909C15.3265 32.3147 12.9197 32.738 10.5321 33.2192C7.66307 33.7965 4.77482 34.2006 1.88657 34.5663C1.69402 34.5855 1.46297 34.5663 1.30893 34.8357C2.88783 34.9897 4.44749 35.1436 6.00714 35.2591C11.5333 35.7017 17.0787 35.4708 22.6049 35.8365C26.2634 36.0674 29.8833 36.6062 33.4262 37.6262C34.0809 37.8187 34.2542 37.9149 34.7163 38.3768C33.7536 38.1458 32.9256 37.9726 32.0976 37.7417C27.4187 36.4908 22.6434 36.1444 17.8104 36.0481C14.4601 35.9712 11.1097 36.1444 7.75934 35.8365C5.468 35.6248 3.17666 35.3938 0.885316 35.1629C0.692766 35.1436 0.442451 35.1629 0.403941 34.8935C0.365431 34.5663 0.615746 34.4508 0.846806 34.3738C1.69402 34.1044 2.59901 34.0467 3.46548 33.9505C6.89287 33.5656 10.2432 32.7958 13.6321 32.1992C15.1147 31.949 16.5204 31.3524 17.9067 30.8136C18.5999 30.5441 19.1583 29.986 19.7167 29.5049C19.8322 29.4087 19.89 29.2162 20.2366 29.3125L20.2943 29.2932Z" stroke="black" stroke-width="0.8" mask="url(#path-1-outside-1_6_308)"/>
<path d="M43.5351 25.5212C42.4183 24.8669 41.2823 24.328 40.1462 23.8084C38.0089 22.8462 35.7753 22.1149 33.561 21.3066C30.6535 20.2289 27.7267 19.2282 24.877 17.9772C23.3751 17.3229 22.1621 16.3029 21.7192 14.6094C21.5459 13.9166 21.5459 13.243 22.1043 12.5502C22.2006 13.1276 21.9117 13.5702 22.0273 14.0513C22.3161 15.4177 23.1441 16.3607 24.2994 17.0535C25.7242 17.9003 27.3031 18.3621 28.8243 18.9587C32.5212 20.4021 36.2952 21.5953 39.9344 23.1926C41.1475 23.7315 42.3413 24.2896 43.3425 25.1748C43.4196 25.2518 43.5543 25.2903 43.5158 25.502L43.5351 25.5212Z" stroke="black" stroke-width="0.8" mask="url(#path-1-outside-1_6_308)"/>
<path d="M69.9337 39.5507C71.2815 38.2805 72.5331 37.0489 73.7654 35.8365C72.8797 37.453 71.4355 38.5692 70.0299 39.8009C72.071 40.4745 74.112 40.8209 76.1723 41.071C76.7307 41.1288 77.3083 41.1288 77.8667 41.225C78.3481 41.3212 78.5021 41.1865 78.6562 40.7054C79.8307 37.0104 80.4469 33.2192 81.0438 29.4087C81.1015 29.0623 81.14 28.7159 81.2748 28.3695C81.4674 28.7159 81.3904 29.0815 81.3519 29.4472C80.909 33.1422 80.3506 36.8179 79.1953 40.359C78.7717 41.6292 78.6562 41.6676 77.3276 41.5137C75.1517 41.2827 72.9952 40.9171 70.8579 40.513C69.5293 40.2628 69.3753 40.1088 69.6641 38.8386C70.0877 36.9334 70.6268 35.0667 71.2045 33.1999C71.1082 35.3361 70.2802 37.3376 69.9529 39.57L69.9337 39.5507Z" stroke="black" stroke-width="0.8" mask="url(#path-1-outside-1_6_308)"/>
<path d="M36.1027 14.0128C35.0629 14.2245 34.1387 14.3785 33.1759 14.3592C34.0424 13.9743 34.9089 13.6087 35.7946 13.2045C35.1592 12.377 34.5238 11.5687 33.8883 10.7604C34.8318 11.2416 35.6405 11.8766 36.4493 12.6272C36.8536 11.6457 37.2387 10.7219 37.6238 9.79819C37.6431 9.79819 37.6816 9.79819 37.7008 9.81744C37.5853 10.6257 37.5275 11.434 37.3542 12.2423C37.2387 12.7811 37.412 12.7619 37.8164 12.6464C38.6443 12.3962 39.5108 12.3578 40.4158 12.3578C39.5878 12.6849 38.7598 13.0698 37.9126 13.3585C37.4505 13.5124 37.3927 13.6087 37.7201 14.0128C38.2592 14.6671 38.7406 15.3792 39.145 16.3222C38.4518 15.7448 37.8549 15.283 37.3157 14.7826C36.8921 14.3592 36.7573 14.5517 36.6226 14.9943C36.353 15.8796 35.8909 16.6878 35.448 17.4961C35.5058 16.3414 35.8138 15.2252 36.1219 14.0128H36.1027Z" stroke="black" stroke-width="0.8" mask="url(#path-1-outside-1_6_308)"/>
<path d="M32.3672 50.0584C33.2337 50.4048 33.8498 50.8667 34.4467 51.3285C34.8511 51.6365 34.9474 51.521 35.0244 51.0784C35.1784 50.3471 35.371 49.635 35.6791 48.9229C35.6791 49.6158 35.7176 50.3086 35.6791 51.0014C35.6213 51.6749 35.8909 51.6365 36.3722 51.444C37.0076 51.1746 37.6816 50.9629 38.3555 50.7897C37.7008 51.444 36.8729 51.8482 36.0834 52.3678C36.8729 53.0028 37.7201 53.5417 38.4903 54.3307C37.489 54.1575 36.7573 53.6572 35.9871 53.2915C35.6213 53.1183 35.5058 53.1376 35.4287 53.5609C35.2747 54.4077 34.9859 55.216 34.6585 56.1013C34.4082 55.1005 34.6585 54.1575 34.5815 53.1761C33.7343 53.4262 32.9063 53.6764 32.0784 53.9074C32.7716 53.2145 33.6573 52.8489 34.5238 52.31C33.715 51.6557 33.0989 50.9244 32.4057 50.0584H32.3672Z" stroke="black" stroke-width="0.8" mask="url(#path-1-outside-1_6_308)"/>
<path d="M71.6281 30.8136C72.071 29.2355 72.4175 27.7536 73.0337 26.2333C73.2455 26.5027 73.1685 26.6759 73.1107 26.8299C72.7834 28.0423 72.4561 29.2547 72.0902 30.4479C71.9747 30.8328 71.9747 31.0445 72.3405 31.2754C72.9374 31.6796 72.9182 31.7565 72.2828 32.0837C71.7436 32.3531 71.2045 32.6803 70.6654 32.969C70.3958 33.1229 70.2032 33.1422 70.1455 32.7573C70.0684 32.1414 69.8951 31.5449 70.184 30.9483C70.3188 30.6596 70.184 30.4864 70.0107 30.2939C68.9709 29.1008 67.546 28.6966 66.0634 28.4849C64.8311 28.3117 63.6565 28.5427 62.5397 29.0623C62.3857 29.12 62.2509 29.197 62.0969 29.2547C61.9428 29.3125 61.7118 29.4857 61.6155 29.2932C61.4807 29.0238 61.7888 28.966 61.9621 28.8891C63.5025 28.0808 65.1007 27.7151 66.8529 28.1C68.1622 28.3887 69.3945 28.8121 70.261 29.9283C70.6076 30.3709 71.1467 30.4671 71.6088 30.8713L71.6281 30.8136ZM72.2057 31.6796C71.8206 31.4294 71.5511 31.2369 71.243 31.083C71.0504 30.9868 70.8001 30.7173 70.6654 30.852C70.4535 31.0637 70.2995 31.4486 70.3765 31.7565C70.4343 31.9875 70.3765 32.2954 70.5498 32.5071C71.089 32.2377 71.5896 31.9875 72.2057 31.6796Z" stroke="black" stroke-width="0.8" mask="url(#path-1-outside-1_6_308)"/>
<path d="M76.4996 35.9712C76.076 35.2976 76.0952 34.5471 75.8834 33.7773C75.3828 34.1814 74.9207 34.5663 74.4393 34.9512C74.3238 35.0474 74.189 35.2206 74.035 35.0859C73.8424 34.9127 74.0157 34.7587 74.1312 34.624C74.5356 34.1622 74.9399 33.7003 75.3828 33.1999C74.8437 32.9305 74.266 32.7765 73.7654 32.2954C74.3238 32.1222 74.8052 32.2377 75.2673 32.3724C75.5754 32.4494 75.7294 32.4301 75.7101 32.0452C75.7101 31.4679 75.7101 30.9675 75.4021 30.3902C74.7474 29.1393 74.3623 27.7344 73.4381 26.5989C74.6704 27.6189 75.248 29.0045 75.6909 30.4479C75.9797 30.4864 75.8642 30.1207 76.1338 30.14C76.1915 30.6788 76.2685 31.1985 76.3263 31.7373C76.3648 32.1414 76.3841 32.3916 76.9039 32.103C77.3276 31.8528 77.8089 31.7373 78.3481 31.6988C78.0015 32.0067 77.6549 32.3531 77.2698 32.6033C76.7884 32.9112 76.9425 33.0652 77.3276 33.2769C77.6356 33.4501 77.963 33.6041 78.2133 34.0082C77.5586 34.0659 77.0772 33.681 76.4996 33.6618V35.9904V35.9712Z" stroke="black" stroke-width="0.8" mask="url(#path-1-outside-1_6_308)"/>
<path d="M37.4698 46.6713C36.0449 46.4211 34.6393 46.3056 33.2529 46.2094C30.0951 45.9977 27.0721 46.4211 24.3186 48.1147C23.7025 48.4996 23.1441 48.9807 22.6627 49.5388C22.2583 50.0007 21.931 50.4625 22.1428 51.1938C21.6807 50.9821 21.7192 50.655 21.777 50.3471C21.9117 49.5773 22.4124 49.0384 22.9515 48.5573C24.9733 46.7868 27.3994 46.0555 29.9988 45.7283C32.3865 45.4396 34.7163 45.7475 37.0269 46.3826C37.1809 46.4211 37.3542 46.4211 37.4698 46.6713Z" stroke="black" stroke-width="0.8" mask="url(#path-1-outside-1_6_308)"/>
<path d="M36.9499 31.7565C36.3722 31.5256 35.9871 31.2562 36.0834 30.6981C36.1797 30.1207 36.6803 29.986 37.1424 29.8706C37.8549 29.6974 38.5288 30.0053 39.2027 30.1785C39.3182 30.1977 39.4338 30.2747 39.3953 30.4094C39.3375 30.6019 39.1835 30.5249 39.0679 30.5056C38.5673 30.4287 38.0667 30.3902 37.5853 30.2939C37.3735 30.2555 37.1809 30.2939 36.9884 30.3517C36.7766 30.4287 36.5263 30.4671 36.4685 30.7366C36.43 31.0252 36.6033 31.2177 36.8344 31.3332C37.2194 31.5064 37.6431 31.6603 38.0474 31.8143C38.2592 31.8913 38.5095 31.8913 38.6636 32.1414C38.4325 32.3531 38.1629 32.2377 37.9126 32.1799C37.3542 32.0645 36.8344 32.0837 36.3337 32.4109C35.8331 32.738 35.8138 33.1037 36.2374 33.5271C36.6225 33.9312 37.1617 33.9889 37.6431 34.1622C37.7971 34.2199 38.0859 34.1622 38.0089 34.4316C37.9511 34.6818 37.7008 34.5855 37.5468 34.5663C37.1039 34.5086 36.6611 34.3931 36.1989 34.5663C35.8523 34.701 35.448 34.8165 35.4287 35.2399C35.3902 35.6633 35.7753 35.8557 36.1219 35.9904C36.6033 36.1636 37.0847 36.3176 37.6816 36.5293C36.9499 36.741 35.5635 36.3176 35.2362 35.8557C34.9089 35.4131 35.0244 34.8165 35.525 34.4893C35.7561 34.3354 36.0064 34.2584 36.2952 34.1237C35.9871 33.7388 35.4095 33.4309 35.5828 32.7958C35.7561 32.1992 36.3145 32.026 36.9499 31.7565Z" stroke="black" stroke-width="0.8" mask="url(#path-1-outside-1_6_308)"/>
<path d="M29.8641 52.0214C25.2429 52.0214 20.6602 51.9059 16.6936 54.8696C16.7322 54.196 17.1943 53.9651 17.5794 53.6957C18.8117 52.8874 20.1788 52.387 21.6229 52.0983C24.2994 51.5402 26.9951 51.521 29.71 51.8866C29.7485 51.8866 29.7678 51.9444 29.8641 52.0406V52.0214Z" stroke="black" stroke-width="0.8" mask="url(#path-1-outside-1_6_308)"/>
<path d="M34.0424 8.33559C33.1952 8.02767 32.3479 7.71975 31.5007 7.45032C28.3429 6.46884 25.1466 5.71829 21.8347 5.52584C21.6229 5.52584 21.2956 5.56433 21.3148 5.23717C21.3148 4.96774 21.6422 5.04472 21.8155 5.04472C24.3571 5.10245 26.8218 5.64131 29.2479 6.31488C30.9231 6.77675 32.502 7.50806 34.0424 8.33559Z" stroke="black" stroke-width="0.8" mask="url(#path-1-outside-1_6_308)"/>
<path d="M30.5572 33.5271C29.5367 32.5648 29.6715 31.8335 30.9423 31.16C30.6343 30.852 30.2877 30.5826 30.3454 30.0822C30.3647 29.8321 30.461 29.6011 30.6535 29.4087C31.1734 28.8891 32.4635 28.7928 33.0219 29.274C33.0989 29.3317 33.1759 29.4087 33.0989 29.4857C33.0604 29.5434 32.9256 29.5626 32.8678 29.5434C32.4827 29.4664 32.1169 29.3317 31.7318 29.3509C31.3082 29.3702 30.8653 29.4664 30.7498 29.9283C30.6343 30.4094 30.9808 30.6788 31.3659 30.8713C31.6355 31.006 31.9243 31.083 32.1747 31.2177C32.2902 31.2754 32.4635 31.2947 32.4057 31.4871C32.3479 31.6411 32.2132 31.6603 32.0591 31.6218C31.7318 31.5256 31.3852 31.4871 31.0386 31.5833C30.6343 31.6796 30.2492 31.8913 30.1914 32.3531C30.1336 32.815 30.4995 33.046 30.8653 33.1999C31.1349 33.3154 31.4237 33.3731 31.7125 33.4693C31.8666 33.5078 32.0591 33.5463 32.0399 33.7388C32.0206 33.9505 31.8088 33.9312 31.6548 33.912C31.2697 33.8735 30.8846 33.835 30.5187 34.0082C30.2106 34.1429 29.9218 34.2776 29.8833 34.6433C29.8448 35.0089 30.1336 35.2206 30.4224 35.3553C30.7498 35.5285 31.0579 35.7017 31.443 35.721C31.5585 35.721 31.674 35.798 31.6548 35.9327C31.6548 36.0674 31.5007 36.0866 31.4045 36.1059C30.7883 36.2021 29.7485 35.6055 29.556 35.0282C29.3827 34.4893 29.6715 34.0274 30.5572 33.5078V33.5271Z" stroke="black" stroke-width="0.8" mask="url(#path-1-outside-1_6_308)"/>
<path d="M28.1311 28.0038C27.8808 28.254 27.7075 28.0808 27.5342 28.0038C27.2454 27.9076 26.9566 27.8883 26.6677 27.9461C26.2441 28.0231 25.8975 28.1963 25.859 28.6389C25.8013 29.1008 26.0901 29.3894 26.4944 29.6011C26.764 29.7358 27.3031 29.6589 27.2261 30.0438C27.1298 30.4287 26.687 30.1207 26.3982 30.1207C26.0131 30.1207 25.628 30.2362 25.3006 30.4479C24.8 30.7943 24.7807 31.4486 25.2814 31.8335C25.5509 32.0452 25.8398 32.2184 26.1864 32.2954C26.3211 32.3339 26.5522 32.3531 26.5137 32.5648C26.4559 32.7765 26.2441 32.815 26.0708 32.7573C25.7242 32.6418 25.4162 32.6418 25.0696 32.7573C24.5689 32.9497 24.1068 33.1999 24.1261 33.7773C24.1261 34.3738 24.6652 34.5663 25.1466 34.7203C25.2814 34.7587 25.4739 34.6818 25.5702 34.8742C24.8192 35.1244 24.0876 34.7972 23.818 34.1237C23.5292 33.3539 23.9528 32.7573 25.1851 32.2569C24.7615 31.8335 24.3379 31.4101 24.6074 30.7173C24.8385 30.1015 25.3584 29.909 25.9938 29.7551C25.7627 29.3125 25.3776 28.966 25.5124 28.4464C25.5894 28.1963 25.705 27.9846 25.9168 27.8306C26.5907 27.311 27.3802 27.3495 28.1696 27.9653L28.1311 28.0038Z" stroke="black" stroke-width="0.8" mask="url(#path-1-outside-1_6_308)"/>
<path d="M29.787 43.977C29.4404 43.2072 29.8833 42.6876 30.2684 42.168C31.2504 40.8016 32.5597 39.8201 34.0231 38.9926C35.1207 38.3768 36.2952 38.0881 37.412 37.5877C37.5275 37.53 37.6623 37.4145 37.7393 37.6262C37.7971 37.7802 37.6816 37.8764 37.5468 37.9341C36.9499 38.2036 36.353 38.4922 35.7561 38.7617C33.8691 39.57 32.1554 40.5899 30.8075 42.1872C30.3647 42.7261 29.9988 43.3035 29.7678 43.9963L29.787 43.977Z" stroke="black" stroke-width="0.8" mask="url(#path-1-outside-1_6_308)"/>
<path d="M32.2324 13.8396C31.2697 13.474 30.3454 13.1853 29.4212 12.9351C27.3224 12.377 25.2043 11.9921 23.0478 11.9344C22.8552 11.9344 22.5472 11.9729 22.5664 11.7034C22.5664 11.434 22.8745 11.511 23.067 11.4917C26.2634 11.28 29.1709 12.2423 32.0206 13.5317C32.0784 13.5509 32.1361 13.5894 32.1939 13.6472C32.2132 13.6664 32.2132 13.7241 32.2709 13.8396H32.2324Z" stroke="black" stroke-width="0.8" mask="url(#path-1-outside-1_6_308)"/>
<path d="M23.1441 31.006C22.6434 31.2947 22.3161 31.1215 22.0465 30.8905C21.6229 30.4864 21.4496 29.986 21.5652 29.4087C21.6999 28.8121 22.2391 28.4657 23.3559 28.254C22.9323 27.5419 22.4124 26.8106 23.2596 26.0986C23.6062 25.8099 24.0298 25.6367 24.4727 25.9831C24.4341 26.0601 24.3956 26.1178 24.3956 26.1178C23.8565 26.0793 23.4521 26.2333 23.2596 26.7529C23.067 27.2725 23.4136 27.6574 23.6832 28.0423C23.7795 28.177 24.0876 28.1578 24.0298 28.408C23.9528 28.6389 23.7217 28.6196 23.5099 28.6196C23.3366 28.6196 23.1633 28.6774 22.9708 28.7159C22.4124 28.8121 21.9503 29.1008 21.8925 29.6974C21.8347 30.2939 22.1428 30.6788 22.7397 30.8328C22.8167 30.852 22.8938 30.9098 23.1056 30.9868L23.1441 31.006Z" stroke="black" stroke-width="0.8" mask="url(#path-1-outside-1_6_308)"/>
<path d="M73.5343 26.1948C75.999 26.0023 78.3673 26.4065 80.6202 27.5034C78.2903 26.9453 75.9412 26.4642 73.5343 26.1948Z" stroke="black" stroke-width="0.8" mask="url(#path-1-outside-1_6_308)"/>
<path d="M21.1608 6.19941C20.6217 8.50879 21.8732 9.74046 23.5677 10.7604C22.6049 10.8374 21.3919 9.89442 20.8912 8.72048C20.4676 7.739 20.5446 6.75751 21.1608 6.19941Z" stroke="black" stroke-width="0.8" mask="url(#path-1-outside-1_6_308)"/>
<path d="M21.1223 34.0659C20.044 33.9697 19.6397 33.0075 20.1788 32.0837C20.5446 31.4871 21.1415 31.2754 21.7385 31.083C21.9117 31.0252 22.008 31.083 22.0273 31.2369C22.0465 31.3717 22.0658 31.5064 21.8925 31.5641C21.854 31.5641 21.7962 31.5641 21.7577 31.5641C21.0838 31.6411 20.5254 31.872 20.3136 32.6033C20.121 33.3154 20.6602 33.6425 21.103 34.0467L21.1223 34.0659Z" stroke="black" stroke-width="0.8" mask="url(#path-1-outside-1_6_308)"/>
<path d="M81.063 28.1385C79.85 29.1008 78.6754 30.1207 77.5394 31.1407C78.5021 29.8898 79.5611 28.7351 81.063 28.1385Z" stroke="black" stroke-width="0.8" mask="url(#path-1-outside-1_6_308)"/>
<path d="M66.8914 32.969C66.8143 33.3346 66.6025 33.5463 66.2367 33.5463C65.8709 33.5463 65.6783 33.3154 65.6976 32.969C65.7168 32.6033 65.9864 32.4109 66.3522 32.3916C66.7181 32.3916 66.8721 32.6226 66.9106 32.9497L66.8914 32.969Z" stroke="black" stroke-width="0.8" mask="url(#path-1-outside-1_6_308)"/>
<path d="M78.1555 40.3205C77.7704 39.339 77.3853 38.3383 77.0002 37.3568L77.212 37.2798C77.5779 38.2805 77.963 39.262 78.3288 40.2628C78.2711 40.282 78.2133 40.3013 78.1748 40.3205H78.1555Z" stroke="black" stroke-width="0.8" mask="url(#path-1-outside-1_6_308)"/>
</svg>
