<svg width="45" height="60" viewBox="0 0 45 60" fill="none" xmlns="http://www.w3.org/2000/svg">
<path d="M0 32.1476C0.12636 29.6293 0.130572 27.4552 0.366445 25.308C0.706214 22.2147 1.45314 19.195 2.65918 16.3198C3.55775 14.1768 4.63462 12.133 5.95579 10.1997C7.2222 8.3485 8.72027 6.73385 10.3419 5.23675C11.5858 4.08808 12.98 3.10088 14.3433 2.09101C14.7041 1.82332 15.1983 1.73551 15.6322 1.56979C17.0783 1.01458 18.4767 0.416875 20.0576 0.178926C22.6017 -0.203491 25.0432 0.0429556 27.4497 0.766716C28.7329 1.15338 29.9249 1.83324 31.1843 2.31055C32.8495 2.94225 34.0583 4.18723 35.3416 5.33306C36.9155 6.73951 38.1777 8.41365 39.3823 10.1402C41.1528 12.6783 42.2605 15.5054 43.2854 18.416C44.1587 20.8975 44.3118 23.4823 44.8046 26.0091C45.1401 27.7314 44.9632 29.5769 44.8621 31.3587C44.754 33.2637 44.4002 35.1545 44.2809 37.0596C44.1756 38.7337 43.4932 40.2322 43.0468 41.7973C42.6831 43.0692 42.0457 44.2646 41.5066 45.4827C41.1191 46.3594 40.7302 47.2404 40.2739 48.0803C39.3093 49.8535 38.1384 51.4852 36.7919 52.9865C35.2531 54.7017 33.5023 56.1592 31.5452 57.3603C29.4588 58.6406 27.2194 59.4352 24.7891 59.8304C22.9091 60.1349 21.0783 59.9678 19.2278 59.8063C17.3184 59.6406 15.6294 58.8078 13.9741 57.9211C13.0109 57.4056 12.0843 56.815 11.1632 56.2257C10.7336 55.951 10.3405 55.6153 9.95439 55.2796C8.05196 53.6281 6.55389 51.6183 5.17656 49.532C4.37207 48.3125 3.74588 46.9599 3.14637 45.6172C2.04142 43.1428 1.09372 40.6047 0.724466 37.8938C0.449281 35.8698 0.213409 33.8416 0.001404 32.1462L0 32.1476ZM27.6968 37.4349C28.5069 37.8088 28.594 37.983 28.257 38.7932C27.9256 39.5906 27.6828 40.286 28.4227 41.0749C29.0966 41.793 29.7916 42.1967 30.7519 42.0338C31.6308 41.8851 32.2205 41.3837 32.4409 40.4801C32.5841 39.8937 32.8902 39.6727 33.5234 39.8923C34.4135 40.201 35.291 39.5679 35.284 38.6303C35.2784 37.9547 35.5803 37.5652 36.1012 37.1899C36.4058 36.9703 36.7287 36.5284 36.7358 36.18C36.761 34.8769 35.4286 33.8883 34.165 34.1659C33.7101 34.2651 33.2496 34.3656 32.7877 34.3812C32.6164 34.3869 32.3946 34.1801 32.2837 34.0115C32.2458 33.9535 32.4522 33.6093 32.5869 33.5781C33.6301 33.3402 34.1861 32.785 34.0022 31.6391C33.9741 31.4663 34.1005 31.2737 34.1103 31.0882C34.1187 30.9366 34.1075 30.744 34.0232 30.6349C33.4153 29.8503 32.7316 29.2129 31.6182 29.3545C31.416 29.38 31.138 29.2497 30.9794 29.101C30.0625 28.2441 29.178 27.3532 28.2696 26.4864C27.8905 26.1252 27.3711 26.0686 27.1352 26.5204C26.912 26.9482 26.7687 27.6025 26.9358 28.0147C27.2644 28.8277 27.8175 29.5528 28.3075 30.295C28.5238 30.6222 28.834 30.9904 28.3763 31.2312C28.1798 31.3346 27.6673 31.0783 27.4525 30.8417C26.9204 30.2596 26.4837 29.5897 25.9979 28.9636C25.4083 28.2045 24.6347 27.9708 23.7642 28.3447C23.0327 28.6591 22.7084 29.305 22.7126 30.101C22.7154 30.6151 22.457 30.8601 21.9811 30.9734C21.4405 31.1023 20.7765 31.9111 20.9281 32.3587C21.3268 33.5328 21.7368 34.7211 22.8544 35.4562C23.6027 35.9477 24.3735 36.3797 24.6712 37.3669C24.8158 37.8485 25.2454 38.2734 25.6231 38.643C25.9755 38.9872 26.3925 39.0155 26.7449 38.5411C27.0243 38.1657 27.3528 37.8286 27.6968 37.4321V37.4349ZM28.0997 17.3084C28.9983 16.9416 29.8393 16.6215 30.6578 16.249C30.9625 16.1102 31.2138 15.851 31.489 15.6456C31.2419 15.3453 30.9962 15.0451 30.7463 14.7476C30.7182 14.715 30.6663 14.6966 30.6213 14.6853C29.6596 14.4473 29.3212 13.725 29.1457 12.8327C28.8509 11.3399 27.6968 10.6827 26.3251 11.2931C25.6287 11.6033 25.2117 11.4517 24.7512 10.9121C24.1657 10.2266 23.0299 10.1274 22.3967 10.6543C22.0724 10.9234 21.9755 11.2265 22.3068 11.6047C22.9162 12.2987 23.5283 12.997 24.0576 13.7519C24.1896 13.9403 24.125 14.4884 23.9551 14.6301C23.6364 14.8935 23.3163 14.7434 23.0523 14.3355C22.6733 13.7491 22.2212 13.1939 21.7213 12.7095C20.9155 11.9291 20.1727 12.0579 19.5072 12.9559C19.3416 13.1783 19.0481 13.3667 18.78 13.4361C18.0906 13.6117 17.7803 14.0862 17.8126 14.7221C17.8407 15.2717 17.9614 15.8566 18.2001 16.3467C18.4753 16.9104 18.3251 17.2163 17.8772 17.5293C17.6174 17.7106 17.317 17.9019 17.1738 18.1667C16.7006 19.0364 17.258 19.7814 17.9979 20.1964C18.7224 20.6043 19.4932 20.9697 20.2865 21.1977C20.9969 21.4017 21.7649 21.6311 22.4332 20.9003C22.8502 20.4442 23.6041 20.7643 23.7726 21.4314C23.8639 21.7912 23.8751 22.1807 23.8611 22.5546C23.8372 23.1481 23.9874 23.6254 24.5448 23.9072C25.0727 24.1735 25.6034 24.4355 26.1243 24.7131C26.5862 24.9596 26.94 24.8392 27.3149 24.4936C27.7403 24.1013 28.1854 23.6537 28.7063 23.4625C29.4167 23.2033 29.8491 22.7812 30.0808 22.0985C30.2423 21.6226 30.5933 21.5022 31.0411 21.3252C31.5171 21.1368 32.0492 20.651 32.1966 20.1808C32.3469 19.702 32.2373 18.9259 31.9228 18.5576C31.2602 17.78 30.3167 17.4033 29.2847 17.8948C28.747 18.1511 28.4521 17.9769 28.0969 17.3098L28.0997 17.3084ZM28.8214 25.4312C29.9783 26.7612 31.482 27.5317 33.1022 28.0019C33.7719 28.196 34.7098 28.1889 35.277 27.8504C36.7793 26.9524 38.1468 25.8221 39.7361 24.6621C39.2953 24.3902 39.0145 24.1622 38.6958 24.0319C38.1805 23.8208 37.6428 23.6608 37.1078 23.5007C36.3258 23.267 35.548 22.9852 34.7477 22.852C33.9488 22.7203 33.0545 22.5234 32.3272 22.7543C30.9302 23.1976 29.6399 23.9469 28.82 25.4298L28.8214 25.4312ZM33.2791 46.0959C32.8284 45.7022 32.5462 45.4033 32.2149 45.1796C31.3865 44.6173 30.5539 44.0592 29.6905 43.555C28.1278 42.6428 26.509 41.8143 24.6262 42.2264C24.0464 42.3539 23.357 42.6499 23.0243 43.0989C22.4725 43.8425 22.9077 45.8098 23.5873 46.5095C24.8719 47.831 27.5002 48.1709 29.1022 47.2503C29.4167 47.0704 29.7888 46.9826 30.144 46.8891C31.1057 46.6342 32.0731 46.399 33.2791 46.0945V46.0959ZM17.4405 30.1605C18.2478 31.6363 19.0523 33.0286 19.7726 34.4634C20.0492 35.0143 20.139 35.663 20.3089 36.2692C20.4577 36.8004 20.688 37.3272 20.7301 37.8669C20.8986 40.0112 21.0236 42.1585 21.1345 44.3071C21.1822 45.2419 21.2033 46.1823 21.1555 47.1157C21.098 48.2573 20.9885 49.3989 20.8438 50.5334C20.7175 51.5234 20.5041 52.5036 20.3412 53.4893C20.3019 53.7273 20.2724 53.9851 20.3272 54.2117C20.3454 54.2882 20.7091 54.3859 20.7947 54.3179C20.9885 54.1649 21.1991 53.9327 21.2412 53.7018C21.4405 52.6395 21.609 51.5688 21.741 50.4952C21.8674 49.4711 21.9965 48.44 22.0106 47.4103C22.0274 46.1455 21.9123 44.8793 21.88 43.6116C21.8561 42.6542 21.8435 41.6939 21.894 40.7393C21.9053 40.5424 22.1861 40.2931 22.4009 40.1869C23.006 39.888 23.642 39.6515 24.3328 39.3611C23.4806 38.2181 22.8502 39.4376 21.9502 39.4631C21.7775 38.8031 21.5978 38.0935 21.4054 37.3867C21.0952 36.2437 20.9014 35.0469 20.4283 33.9761C19.8765 32.7269 19.0706 31.591 19.9158 30.1775C19.9734 30.0811 19.9734 29.9508 20.0113 29.8389C20.3033 28.9721 20.5574 28.0897 20.9014 27.2442C21.4195 25.9709 22.0036 24.7259 22.5511 23.4639C22.7364 23.0376 22.7266 22.6467 22.1566 22.3209C20.6936 24.9482 19.9916 27.8886 18.655 30.6505C18.3756 30.2851 18.1987 30.0528 18.0035 29.7979C17.7775 29.9423 17.6048 30.0528 17.4377 30.159L17.4405 30.1605ZM13.9305 19.4556C14.2394 19.4046 14.5679 19.3791 14.881 19.2941C15.7263 19.0647 16.1362 18.2644 15.8596 17.4274C15.715 16.9911 15.5929 16.545 15.416 16.1215C15.2938 15.8283 15.1492 15.511 14.926 15.3C13.9235 14.3553 13.1724 13.0976 11.7192 12.7024C10.6732 12.4177 9.6441 12.0679 8.60093 11.7718C8.48299 11.7378 8.29486 11.8327 8.19377 11.9276C8.15305 11.9645 8.2415 12.1769 8.30609 12.2874C8.68236 12.9347 9.10637 13.555 9.44193 14.2221C10.04 15.4076 10.5356 16.647 11.1689 17.8112C11.7431 18.8692 12.7147 19.3848 13.9319 19.4556H13.9305ZM13.119 27.7116C13.0966 27.6379 13.0755 27.5643 13.053 27.4892C11.7824 27.9127 11.0706 27.1068 10.3012 26.4057C10.2226 26.3349 10.0274 26.349 9.90244 26.3844C8.85927 26.6805 8.33417 28.0982 8.97159 28.9679C9.34084 29.4735 9.33803 29.9537 9.07408 30.4791C8.93789 30.7511 8.79468 31.0216 8.67675 31.302C8.31592 32.1589 8.37769 32.3615 9.19342 32.785C9.40402 32.894 9.69324 32.9691 9.91227 32.9153C10.6508 32.7326 11.3907 32.53 12.0885 32.234C12.2724 32.1561 12.3735 31.717 12.3833 31.4394C12.3903 31.2383 12.1797 31.0301 12.0702 30.8233C11.5269 29.7979 11.628 29.3885 12.4928 28.6251C12.761 28.3886 12.9126 28.0189 13.1176 27.7087L13.119 27.7116ZM17.953 34.0838C17.8084 34.8514 17.7031 35.5908 17.529 36.3117C17.2215 37.5794 16.7905 38.8229 16.5602 40.1033C16.2808 41.6613 16.1699 43.2491 15.9523 44.8184C15.8989 45.2022 15.7206 45.5705 15.583 45.9401C14.94 47.6681 14.2801 49.389 13.6596 51.1254C13.5964 51.3039 13.7592 51.5659 13.8168 51.7883C14.0316 51.6183 14.3896 51.4809 14.436 51.2727C14.6592 50.2742 14.7954 49.2714 15.3444 48.3579C16.1826 46.9599 16.8663 45.4657 17.7438 44.096C18.2801 43.259 19.0734 42.5933 19.715 41.8199C19.8667 41.6372 19.8667 41.3285 19.9369 41.0778C19.6448 41.1373 19.2784 41.1033 19.0762 41.2718C18.4809 41.769 17.9516 42.3454 17.2861 42.9984C17.2384 42.64 17.1415 42.3723 17.1808 42.1259C17.3114 41.3157 17.4981 40.5155 17.6497 39.7096C17.946 38.1247 18.1482 36.5157 18.5609 34.9619C18.7491 34.2566 18.4781 34.2141 17.9544 34.0824L17.953 34.0838ZM13.0853 27.1776C13.3212 26.6734 13.4447 25.9496 13.7368 25.8717C14.5834 25.6479 15.1618 25.1834 15.7473 24.5772C16 24.3166 16.1278 24.1848 16.0183 23.8492C15.7319 22.9653 15.4707 22.073 15.1731 21.1935C15.0411 20.8054 14.5076 20.77 14.3194 21.1793C14.0541 21.7558 13.6582 21.9116 13.0923 21.8308C12.5701 21.7558 12.3089 22.066 12.351 22.5192C12.4325 23.4002 11.979 23.7684 11.2222 23.9157C10.7645 24.005 10.582 24.3746 10.7898 24.6876C11.4342 25.6536 11.9158 26.8065 13.0839 27.1776H13.0853ZM16.8958 25.3123C16.7975 25.2938 16.6978 25.274 16.5995 25.2556C16.4465 25.5729 16.2738 25.8816 16.1446 26.2074C15.9537 26.689 15.7628 27.036 15.1183 26.7994C14.7519 26.6649 14.2057 26.7371 14.2577 27.2994C14.3489 28.2894 13.894 28.9169 13.2187 29.533C13.0292 29.7058 13.0165 30.2554 13.1345 30.5443C13.2959 30.9423 13.5163 31.4338 14.1341 31.3474C15.7178 31.1278 16.6922 30.1378 17.3451 28.7554C17.4153 28.6081 17.4082 28.4042 17.383 28.2356C17.3086 27.7555 17.1962 27.2824 17.1148 26.8037C17.032 26.308 16.9688 25.808 16.8958 25.3108V25.3123ZM16.2766 14.1117C16.914 14.1117 17.2061 13.5989 17.2299 13.0636C17.2678 12.1883 17.2721 11.2648 17.0306 10.439C16.8719 9.89799 16.2738 9.4745 15.8414 9.02835C15.1857 8.35133 14.502 7.6998 13.7059 6.91372C13.6483 7.33721 13.5346 7.59074 13.6006 7.78054C14.3475 9.92207 14.3363 12.3809 16.2752 14.1103L16.2766 14.1117ZM11.298 35.6687C11.2264 35.6984 11.1562 35.7282 11.0846 35.7579C11.6869 37.1729 12.3538 38.5637 12.8747 40.0084C13.4054 41.4772 13.7943 42.9984 14.2464 44.4969C15.6153 42.1882 15.2026 37.8711 11.298 35.6687ZM38.7042 18.7403C38.6719 18.6426 38.6396 18.5463 38.6073 18.4486C37.7481 18.5732 36.886 18.6837 36.0296 18.8267C35.5831 18.9004 35.0355 18.899 34.728 19.1624C34.0906 19.712 33.5838 20.4159 32.9941 21.0887C33.9221 21.9215 34.8909 21.6269 35.7235 21.4937C37.2637 21.2487 37.668 19.6241 38.7042 18.7418V18.7403Z" fill="black"/>
<path d="M27.7965 31.9975C28.5392 31.3941 28.9099 31.5003 29.2637 32.5654C29.4799 33.217 29.873 33.5073 30.5652 33.4946C30.9204 33.4875 31.2784 33.6575 31.6757 33.8515C30.8909 34.4223 30.8404 35.0809 31.131 35.8457C31.1843 35.986 31.0706 36.1899 31.0341 36.3641C30.846 36.3117 30.6143 36.3117 30.4795 36.197C30.0443 35.8259 29.7172 35.8344 29.3872 36.3372C29.2763 36.5057 28.9941 36.6998 28.8411 36.6644C28.6838 36.6276 28.556 36.3372 28.4718 36.1333C28.3286 35.7891 28.2359 35.4251 28.1096 35.0738C27.9481 34.6234 27.6884 34.3132 27.1562 34.2821C26.9625 34.2707 26.7786 34.0923 26.5273 33.9563C26.7701 33.6872 26.9386 33.5002 27.131 33.2864C27.058 33.1348 26.9372 32.979 26.9105 32.8076C26.8628 32.5017 26.8712 32.1873 26.8558 31.8771C27.1226 31.9111 27.3879 31.9465 27.7951 31.9989L27.7965 31.9975Z" fill="black"/>
<path d="M22.6227 15.5266C23.4895 16.029 24.1638 15.96 24.6459 15.3198C25.2314 15.5535 25.4279 16.0549 25.5023 16.6257C25.6231 17.5492 25.6849 17.5818 26.5834 17.5903C26.8558 17.5931 27.1254 17.8084 27.3963 17.9259C27.218 18.1299 27.0762 18.4004 26.8544 18.5222C26.3419 18.8055 26.2521 19.1086 26.6045 19.5902C26.6943 19.7134 26.6396 19.9457 26.6508 20.1284C26.5006 20.0661 26.3532 19.991 26.1987 19.9457C25.8281 19.838 25.4363 19.6256 25.0825 19.6723C24.323 19.7743 23.9748 19.6298 23.8147 18.8806C23.6926 18.3112 23.4609 17.865 22.853 17.7177C22.4837 17.6285 22.4037 17.4203 22.4865 17.0365C22.5862 16.5776 22.5778 16.096 22.6255 15.5266H22.6227Z" fill="black"/>
<path d="M32.125 25.6196C31.7502 25.7216 31.3795 25.8491 30.999 25.9128C30.7856 25.9496 30.5245 25.9383 30.3419 25.842C30.1875 25.7598 30.1131 25.5219 30.0036 25.3533C30.1692 25.2471 30.3237 25.0786 30.502 25.046C31.4567 24.8718 32.4142 24.7131 33.3774 24.5927C33.5585 24.5701 33.7649 24.7429 33.9586 24.825C33.8365 24.9808 33.7452 25.2074 33.5866 25.2783C33.1317 25.4822 32.6501 25.6224 32.1784 25.7882C32.1615 25.7315 32.1433 25.6748 32.1264 25.6182L32.125 25.6196Z" fill="black"/>
<path d="M28.6796 44.9189C28.3188 45.0379 28.0773 45.1824 27.833 45.188C26.7182 45.2121 25.602 45.222 24.49 45.1753C24.2654 45.1654 23.9046 44.9161 23.8639 44.7221C23.7866 44.3538 24.0857 44.2221 24.4606 44.1428C25.7719 43.8623 26.985 44.2972 28.2191 44.5847C28.3384 44.613 28.4367 44.7376 28.681 44.9189H28.6796Z" fill="black"/>
<path d="M12.219 15.6371C12.4226 15.0493 12.8017 15.1895 13.1232 15.477C13.8098 16.0903 14.4598 16.7447 15.1127 17.3721C14.575 18.1228 14.4767 18.0817 13.9937 17.4854C13.4602 16.8268 12.82 16.256 12.2176 15.6385L12.219 15.6371Z" fill="black"/>
</svg>
