<svg width="52" height="61" viewBox="0 0 52 61" fill="none" xmlns="http://www.w3.org/2000/svg">
<path d="M28.3703 0.61377C28.7716 0.593252 29.2068 0.661591 29.5891 0.734863L29.9514 0.807129L30.2473 0.876465C31.7283 1.27308 33.218 2.36156 34.6135 3.84521C36.1047 5.43054 37.5024 7.48247 38.6828 9.67236C39.8635 11.8627 40.8292 14.1964 41.4543 16.3472C42.0395 18.3605 42.3299 20.2262 42.2102 21.6685L42.1809 21.9507C42.1205 22.4419 42.0094 22.8253 41.8957 23.1597C41.7802 23.4994 41.67 23.7684 41.5969 24.0601C41.4571 24.6181 41.461 25.2449 41.9865 26.4282C42.3503 27.2462 42.9671 27.8431 43.6506 28.3989C44.3254 28.9477 45.0821 29.4675 45.6662 30.1069C46.833 31.3841 47.8912 33.5321 48.1311 35.1616L48.1867 35.6108C48.3931 37.8104 47.5742 39.3585 47.0617 40.8979C46.7874 41.7222 46.5969 42.5493 46.6721 43.4917C46.7472 44.4336 47.0886 45.5045 47.9006 46.811C48.3338 47.4987 48.7633 48.0635 49.1672 48.5894C49.5699 49.1137 49.9512 49.6033 50.2805 50.1313C50.9444 51.196 51.3945 52.414 51.4475 54.4292C51.4742 55.3413 51.2551 56.7171 50.7717 57.9233C50.3164 59.0592 49.6047 60.0947 48.5959 60.4019L48.593 60.4507H48.4006L48.383 60.2944L48.3029 60.2896C48.3833 59.1748 48.8123 58.1819 49.1975 57.2075C49.5613 56.2872 49.8893 55.3774 49.8977 54.3569L49.8947 54.1509C49.8052 51.6898 48.4417 49.9344 47.1584 48.1001C45.8813 46.2745 44.6931 44.3778 45.094 41.6831C45.22 40.8312 45.436 40.1524 45.6653 39.5513C45.8978 38.9415 46.1314 38.4398 46.3137 37.896C46.6679 36.8391 46.8003 35.6877 46.1184 33.6606C45.4422 31.6508 43.8512 30.4508 42.4133 29.1304C40.9836 27.8175 39.7244 26.3938 39.8723 23.9653L39.8733 23.9634C39.9139 23.4198 40.0823 22.8856 40.2375 22.3794C40.3951 21.8656 40.5386 21.3806 40.551 20.9067C40.5765 19.9674 40.3484 18.7227 39.9465 17.3286C39.5454 15.9372 38.9738 14.4074 38.3215 12.9009C37.0155 9.8845 35.3913 6.97857 34.1643 5.4751L34.1633 5.47412C33.3066 4.4192 32.2808 3.35242 31.1125 2.60205C29.9457 1.85265 28.6437 1.4235 27.2278 1.62646L26.969 1.66357L27.0676 1.42041C27.3078 0.833323 27.8297 0.641445 28.3703 0.61377ZM16.5119 1.47705C18.5027 0.256738 20.7449 -0.351859 22.9113 0.660645L23.0256 0.714355L22.9934 0.835449L22.8098 1.51611L22.7707 1.66357L22.6242 1.62158C22.4846 1.58155 22.3448 1.53715 22.2082 1.49365C22.0709 1.4499 21.936 1.40728 21.801 1.37061C21.5306 1.2972 21.2669 1.24921 21.0022 1.26123H20.9983C19.5437 1.29296 17.9772 2.03195 16.4367 3.23291C14.8987 4.43194 13.4007 6.07952 12.0852 7.8999C10.7699 9.71987 9.64081 11.7085 8.83713 13.5854C8.03227 15.4651 7.55889 17.222 7.54611 18.5815C7.53353 19.9837 8.05826 21.0181 8.53928 22.1685C9.01986 23.3179 9.44376 24.5607 9.1633 26.3296C9.0531 27.0335 8.67994 27.6842 8.20236 28.3101C7.72565 28.9348 7.12883 29.5524 6.56467 30.1802C5.42348 31.4499 4.40477 32.7697 4.4924 34.4165C4.51653 34.8766 4.70272 35.2502 4.91623 35.6235C5.12476 35.9881 5.37103 36.3693 5.45529 36.8062H5.45627C5.61558 37.6587 5.64346 38.5478 5.4006 39.4146C5.21438 40.1861 4.89646 40.9057 4.61252 41.605L4.61154 41.606C4.55169 41.7502 4.5155 41.9075 4.47189 42.0825C4.45417 42.1537 4.43364 42.2269 4.41135 42.3013L4.55295 42.231L4.2883 42.6733C4.19473 42.8296 4.06498 42.9423 3.93185 43.0337C3.80547 43.1205 3.65618 43.1988 3.53732 43.27L3.5383 43.271C3.42373 43.3477 3.30838 43.4308 3.19064 43.5161C3.07374 43.6008 2.95426 43.6877 2.8342 43.7681C2.46472 44.0328 2.09179 44.2823 1.79318 44.606C1.4578 45.0165 1.32717 45.5296 1.30197 46.0796C1.27666 46.6323 1.3582 47.2075 1.43674 47.7329L1.49826 48.1401L1.18967 47.8677C0.342535 47.1197 0.0698051 46.3379 0.170135 45.5366C0.268541 44.7514 0.722944 43.9694 1.27463 43.2056C1.55187 42.8217 1.85772 42.4365 2.16135 42.0542C2.46581 41.6708 2.76888 41.2904 3.04318 40.9097C3.59422 40.1449 4.01631 39.4006 4.11545 38.6733L4.14084 38.4399C4.22656 37.2996 3.74313 36.5189 3.33713 35.5913C3.12218 35.1002 2.93388 34.5728 2.88889 33.9458C2.84384 33.3178 2.94296 32.5995 3.28928 31.7241C3.5923 30.9474 4.06911 30.3133 4.59103 29.7358C4.85188 29.4472 5.12611 29.1712 5.39572 28.8989C5.66616 28.6258 5.93187 28.356 6.18185 28.0776C6.68155 27.5212 7.11008 26.9362 7.36252 26.2339C7.61413 25.5339 7.69492 24.7075 7.48459 23.6646L7.45139 23.5327C7.36123 23.2235 7.18225 22.9069 6.98361 22.5718C6.79004 22.2452 6.57683 21.8999 6.44357 21.5503L6.39182 21.3999C5.58199 18.749 6.0562 15.9021 7.1301 13.2329C8.20441 10.5628 9.88475 8.05548 11.509 6.0708L11.9992 5.48584C13.1984 4.09408 14.7695 2.5452 16.5119 1.47705ZM13.0363 29.1177C13.3461 29.7112 13.3414 30.407 13.1789 31.0317C13.0158 31.659 12.6912 32.2268 12.3195 32.7329C12.0483 33.1024 11.7921 33.4855 11.5617 33.8823L11.3401 34.2847C11.0865 34.768 10.9156 35.3167 10.9397 35.8306L10.9553 35.9849C10.9918 36.2415 11.0777 36.491 11.175 36.7407L11.2942 37.0405L11.2961 37.0454C11.3606 37.2266 11.4421 37.4521 11.4934 37.6821C11.5444 37.911 11.5702 38.1617 11.509 38.3921L11.5061 38.4009C11.4544 38.5565 11.3964 38.7318 11.2795 38.9077L11.2356 38.9741H11.1545C11.0909 38.974 11.0223 38.9535 10.9826 38.9429C10.9325 38.9295 10.8974 38.9224 10.8674 38.9224C10.7918 38.9223 10.7218 38.9037 10.6662 38.8862C10.6024 38.8662 10.565 38.8512 10.5178 38.8394L10.5129 38.8374C10.4286 38.8133 10.3364 38.7948 10.2375 38.7749C10.2073 38.7688 10.177 38.7599 10.1457 38.7534L10.1145 39.1685L9.87228 38.6821L9.84592 38.6294L9.69455 38.3247L9.8674 38.3735C9.87797 37.796 9.76951 37.2314 9.67599 36.6216L9.67404 36.6099V36.5981C9.674 36.5171 9.65515 36.4624 9.62619 36.3462L9.62326 36.3354V36.3345C9.49123 35.5654 9.46017 34.7164 9.81955 33.9673V33.9653H9.82053C10.0415 33.5219 10.3772 33.1721 10.7063 32.8452C11.0407 32.513 11.366 32.2057 11.6028 31.8306C11.851 31.4317 11.9816 30.9693 12.134 30.4839C12.2839 30.0066 12.4538 29.5104 12.7863 29.0933L12.9299 28.9126L13.0363 29.1177ZM32.4211 23.2974C32.5525 23.2694 32.7334 23.2834 32.9768 23.3296L32.9543 23.4468L33.0988 23.4507V23.6587L33.0862 23.6558C32.8305 27.5091 30.4112 31.4285 26.2258 31.7192L26.0959 31.729L26.0686 31.6011C26.026 31.4018 26.0256 31.2353 26.0686 31.0933C26.1123 30.949 26.1961 30.844 26.2942 30.7612C26.3888 30.6814 26.5018 30.6188 26.6047 30.562C26.7116 30.503 26.8131 30.4474 26.9074 30.3765L26.9094 30.3755C28.5648 29.1627 29.445 28.587 30.1194 27.8237C30.7886 27.0662 31.2564 26.1192 32.0529 24.1538L32.0539 24.1528C32.0961 24.0523 32.1075 23.9529 32.1125 23.853C32.1145 23.8123 32.1169 23.744 32.1194 23.7026C32.1222 23.654 32.1273 23.599 32.1428 23.5464C32.1589 23.4915 32.1874 23.4344 32.2385 23.3872C32.2892 23.3404 32.3519 23.3121 32.4211 23.2974ZM21.9944 7.36963C22.1238 7.34441 22.3007 7.36057 22.5373 7.40674L22.6711 7.43213L22.6584 7.56787C22.4487 9.83022 21.8966 12.2239 20.4065 14.0396L20.4055 14.0386C19.7954 14.7917 18.9824 15.3791 18.1106 15.9028C17.6742 16.1649 17.2207 16.4127 16.7688 16.6577C16.316 16.9032 15.8653 17.1461 15.4299 17.3999C13.6852 18.4171 12.2368 19.5879 12.0354 21.7104C11.9912 22.2182 12.0428 22.5709 12.1428 22.8237C12.2419 23.0739 12.3926 23.2361 12.5637 23.3579C12.7398 23.4833 12.9343 23.5647 13.134 23.6558C13.3243 23.7426 13.5284 23.8425 13.6701 24.0083H13.6692C13.7221 24.067 13.7709 24.1493 13.8147 24.2388C13.8605 24.3325 13.9069 24.4453 13.9543 24.5698C14.0491 24.8191 14.1504 25.1272 14.2561 25.4468C14.47 26.0942 14.7002 26.7838 14.9387 27.1997L14.9397 27.2007C15.5539 28.2791 16.6582 29.3634 17.551 30.2593L17.7619 30.4702L17.467 30.5132C16.4172 30.6677 15.5743 30.1363 14.9211 29.3901C14.2688 28.6449 13.7854 27.6642 13.4445 26.8618L13.4436 26.8608C13.305 26.527 13.2306 26.0756 13.1662 25.6782C13.1334 25.4758 13.1035 25.2862 13.0686 25.1226C13.0332 24.9568 12.9958 24.832 12.9543 24.7534C12.8717 24.616 12.7033 24.526 12.4445 24.4214C12.1987 24.322 11.8839 24.2131 11.6057 24.0229C11.32 23.8277 11.0685 23.545 10.9319 23.0942C10.7968 22.6485 10.7765 22.049 10.9289 21.2241C11.4638 18.3125 13.3519 17.0323 15.3459 15.9087C17.3492 14.7799 19.4369 13.8137 20.5471 11.5474V11.5464C20.8007 11.0374 20.9607 10.4871 21.1106 9.92139C21.2593 9.36011 21.3998 8.77979 21.6125 8.23291V8.23193C21.6562 8.12234 21.6691 8.01722 21.676 7.91553C21.6791 7.87023 21.682 7.80895 21.6858 7.76416C21.6898 7.71553 21.6963 7.6608 21.7131 7.60889C21.7307 7.5548 21.761 7.49986 21.8127 7.45459C21.864 7.40977 21.9262 7.38295 21.9944 7.36963ZM28.7434 10.0728L28.9377 10.105L29.0373 10.1284L29.052 10.23C29.3114 12.0263 29.8808 14.0684 30.9055 15.5601C31.3858 16.2449 32.0807 16.8058 32.8293 17.3364C33.5699 17.8613 34.3742 18.3634 35.0295 18.9136C35.688 19.4665 36.2245 20.0898 36.426 20.8794C36.6157 21.6234 36.502 22.4893 35.9612 23.5454L35.8469 23.7593C35.4465 24.4796 34.6817 24.9915 34.0803 25.1938C33.9284 25.2449 33.7818 25.278 33.6506 25.2886C33.522 25.2989 33.3951 25.2892 33.2903 25.2417C33.1777 25.1906 33.0941 25.0966 33.0715 24.9634C33.0508 24.8408 33.0853 24.7046 33.1535 24.564L33.1545 24.563C33.2648 24.3416 33.462 24.1866 33.6672 24.0522C33.8841 23.9102 34.1008 23.7947 34.3244 23.6284C34.54 23.4681 34.7411 23.2743 34.8938 23.0054C35.0463 22.7365 35.1553 22.3836 35.174 21.8999V21.8989C35.1997 21.3247 35.152 20.9476 35.0598 20.6929C34.9701 20.4456 34.8376 20.3093 34.675 20.2153C34.5022 20.1154 34.2959 20.0615 34.0412 19.9868C33.7935 19.9141 33.5139 19.8251 33.2346 19.6499L33.2326 19.6489C30.4859 17.8733 28.5257 15.0858 28.1281 11.7622V11.7612C28.1187 11.6792 28.1051 11.591 28.091 11.4976C28.0771 11.4048 28.0625 11.3066 28.05 11.2095C28.0253 11.0173 28.0085 10.8138 28.0305 10.6353C28.0525 10.4575 28.1168 10.2753 28.2815 10.1646C28.4036 10.0825 28.5589 10.055 28.7434 10.0728ZM19.2942 18.2231C19.4726 18.1865 19.6358 18.215 19.7766 18.2974C19.9141 18.3778 20.0209 18.5041 20.1028 18.6499C20.2654 18.9396 20.3482 19.3378 20.3684 19.7339C20.3886 20.132 20.3469 20.547 20.2463 20.8774C20.196 21.0424 20.129 21.194 20.0422 21.312C19.9771 21.4005 19.8956 21.476 19.7971 21.521L19.6936 21.5552C19.5153 21.5917 19.3519 21.5632 19.2112 21.481C19.0738 21.4005 18.9668 21.2741 18.885 21.1284C18.7224 20.8387 18.6405 20.4405 18.6203 20.0444C18.6001 19.6463 18.6418 19.2313 18.7424 18.9009C18.7927 18.7359 18.8597 18.5844 18.9465 18.4663C19.033 18.3488 19.1478 18.2528 19.2942 18.2231ZM26.8381 18.2075C26.9657 18.2039 27.0842 18.2357 27.1897 18.2974C27.327 18.3778 27.434 18.5042 27.5158 18.6499C27.6784 18.9396 27.7603 19.3379 27.7805 19.7339C27.8007 20.132 27.759 20.547 27.6584 20.8774C27.6082 21.0424 27.5411 21.194 27.4543 21.312C27.3676 21.4298 27.2525 21.5247 27.1057 21.5542C26.9275 21.5906 26.7649 21.5632 26.6242 21.481C26.4868 21.4005 26.3799 21.2743 26.2981 21.1284C26.1354 20.8387 26.0526 20.4406 26.0324 20.0444C26.0122 19.6463 26.0539 19.2313 26.1545 18.9009C26.2048 18.7359 26.2718 18.5844 26.3586 18.4663C26.4452 18.3486 26.5605 18.2527 26.7072 18.2231L26.8381 18.2075ZM24.6594 7.74463L24.6897 7.85596L26.0676 13.0249C26.8839 14.9944 28.0239 15.8376 29.8391 16.8784L29.9485 16.9409L29.9065 17.0591L29.5403 18.0806L29.4934 18.2114L29.3596 18.1743C27.3445 17.6216 25.8543 15.9618 24.9914 13.9946C24.1284 12.0272 23.8805 9.72679 24.3733 7.85596L24.4026 7.74463H24.6594ZM40.4592 37.1479C40.4592 37.6491 40.2345 38.3742 40.0207 38.9819C39.9128 39.2887 39.8035 39.5771 39.7238 39.7964C39.6836 39.9072 39.6506 40 39.6281 40.0718C39.617 40.1074 39.6089 40.1359 39.6037 40.1577C39.598 40.1822 39.5979 40.1894 39.5979 40.186V40.4507L39.3713 40.3149L38.2746 39.6606L38.1535 39.5884L38.219 39.4634C38.8739 38.1937 38.8979 37.1555 38.6008 36.2241C38.3002 35.2821 37.6677 34.4376 36.9807 33.561C35.6188 31.8236 34.0469 29.9757 34.8401 27.1294L34.8635 27.0454L34.9485 27.0249C35.2638 26.9458 35.5123 26.989 35.6721 27.1772C35.8158 27.3468 35.853 27.5988 35.8596 27.8403C35.8664 28.0881 35.8403 28.3727 35.8244 28.6304C35.8121 28.83 35.8053 29.0135 35.8176 29.1694L35.8371 29.3149V29.3159C36.1138 30.8051 37.211 31.7644 38.302 32.8657C39.3828 33.9568 40.4321 35.172 40.4592 37.146V37.1479Z" fill="black" stroke="black" stroke-width="0.3"/>
</svg>
