<?xml version="1.0" encoding="UTF-8"?><svg id="_레이어_1" xmlns="http://www.w3.org/2000/svg" viewBox="0 0 22.88 12.06"><defs><style>.cls-1{fill:#fff;}</style></defs><path d="M12.72,12.01c-.25,0-.51-.02-.77-.07-1.94-.33-3.4-1.7-3.8-3.56-.33-1.54-.02-2.9.93-4.05.04-.05.08-.1.11-.15l-.31-.34c-1.04-.97-2.12-1.97-3.39-2.67-.86-.47-1.59-.69-2.32-.69-.23,0-.47.02-.7.07-.78.16-1.29.48-1.64,1.03-.37.59-.3,1.39.17,1.91.18.21.53.34.87.34.32,0,.59-.12.72-.33h0s.08-.07.08-.07l.06-.03.07.03c.07.26-.01.45-.24.59-.24.15-.52.23-.81.23-.46,0-.91-.19-1.24-.52C.17,3.36,0,2.82.06,2.25c.07-.66.42-1.25.98-1.62C1.63.23,2.32.05,3.18.05h.22c1.76.06,3.08,1.01,4.24,2.02.45.39.89.79,1.33,1.2l.6.55c1.06-1.02,2.31-1.54,3.62-1.54.25,0,.51.02.78.06,1.71.25,3.08,1.09,4.06,2.49l-.05-.1c.02-.07.04-.12.06-.18.2-.68.65-1.12,1.34-1.3.22-.06.46-.09.69-.09,1.5,0,2.73,1.21,2.74,2.7,0,.64-.05,1.39-.5,2.08-.43.66-1.03,1.1-1.84,1.35-.56.17-1.15.26-1.75.26-.56,0-1.14-.07-1.76-.21l-.71-.17c0,.1-.05.23-.1.36-.11.28-.21.54-.35.79-.64,1.08-1.77,1.7-3.09,1.7ZM9.52,4.47c-.51.53-.83,1.17-.96,1.91-.29,1.65.22,3.05,1.53,4.15.83.7,1.68,1.05,2.54,1.05.46,0,.93-.1,1.4-.31.9-.39,1.47-1.11,1.68-2.14.01-.07-.05-.22-.09-.24-.89-.33-1.78-.83-2.72-1.53l-.95-.7c-.3.69-.2,1.28.42,1.84-.05.01-.1.02-.15.02-.25,0-.44-.14-.57-.36-.26-.44-.25-1.13.04-1.76l-.64-.54-1.53-1.4ZM13.41,5.48c.07,0,.14,0,.22.01,1.57.18,2.64,1.38,2.67,2.98,0,.17.06.24.21.27.22.04.44.08.65.12.49.09.99.19,1.48.21.08,0,.17,0,.25,0,.98,0,1.82-.29,2.49-.85.73-.61,1.09-1.58.95-2.53-.13-.9-.67-1.61-1.48-1.96-.29-.12-.57-.19-.84-.19-.44,0-.85.16-1.23.48-.47.39-.59.94-.32,1.48.05.11.1.21.12.31,0,.04.03.09.04.14.06.16.13.37-.09.46-.04.02-.08.03-.12.03-.18,0-.25-.18-.31-.33l-.05-.11c-.05-.1-.08-.2-.12-.3-.04-.12-.08-.24-.14-.34-.34-.57-.81-1.06-1.44-1.51-1.05-.75-2.06-1.12-3.08-1.12-.32,0-.65.04-.97.11-1.02.22-1.82.63-2.51,1.27l.73.59,1.49,1.36c.42-.41.9-.61,1.39-.61ZM13.47,5.88c-.43,0-.82.16-1.19.47,1.1.87,2.26,1.6,3.54,2.16-.07-.97-.63-2.17-1.73-2.53-.21-.07-.42-.1-.62-.1Z"/><path d="M3.18.1c.07,0,.14,0,.21,0,1.7.06,3,.94,4.21,2,.65.57,1.28,1.16,1.94,1.75,1.06-.96,2.27-1.53,3.66-1.53.25,0,.51.02.77.06,1.67.24,3.02,1.04,4.03,2.47.04-.12.08-.21.1-.3.19-.67.65-1.09,1.31-1.27.22-.06.45-.09.68-.09,1.39,0,2.68,1.08,2.69,2.65,0,.73-.08,1.42-.5,2.05-.44.67-1.05,1.09-1.81,1.32-.58.18-1.16.25-1.74.25s-1.17-.08-1.75-.21c-.25-.06-.49-.12-.71-.17-.17.41-.29.82-.5,1.18-.64,1.08-1.76,1.67-3.05,1.67-.25,0-.5-.02-.76-.07-1.89-.33-3.36-1.67-3.76-3.52-.32-1.46-.05-2.82.92-4.01.06-.07.1-.14.16-.22-1.19-1.1-2.34-2.24-3.76-3.02-.74-.41-1.51-.7-2.34-.7-.23,0-.47.02-.71.07-.69.14-1.28.43-1.67,1.05-.39.62-.29,1.44.17,1.97.2.22.56.36.91.36.31,0,.61-.11.77-.35.02-.03.07-.05.13-.09.07.26-.03.42-.22.54-.24.15-.51.22-.79.22-.44,0-.88-.18-1.2-.51C-.2,2.91-.01,1.38,1.06.67,1.72.24,2.43.1,3.18.1M11.99,6.13c.44-.37.91-.6,1.42-.6.07,0,.14,0,.21.01,1.55.18,2.6,1.36,2.62,2.93,0,.2.08.29.26.32.71.12,1.42.3,2.14.33.08,0,.17,0,.25,0,.92,0,1.79-.24,2.53-.86,1.51-1.26,1.3-3.78-.54-4.57-.29-.13-.58-.19-.86-.19-.45,0-.87.16-1.27.49-.49.41-.61.98-.33,1.54.05.1.1.2.12.3.04.19.22.46-.02.55-.04.01-.07.02-.1.02-.18,0-.24-.26-.32-.41-.1-.21-.14-.45-.26-.64-.37-.62-.87-1.11-1.45-1.53-.96-.68-1.97-1.13-3.11-1.13-.32,0-.64.03-.98.11-.95.21-1.79.59-2.54,1.29.74.68,1.47,1.35,2.22,2.03M12.63,11.63c.46,0,.93-.1,1.42-.31.94-.41,1.5-1.17,1.71-2.18.02-.09-.05-.27-.12-.29-.98-.37-1.87-.9-2.71-1.52-.31-.23-.62-.46-.94-.7-.4.74-.25,1.36.35,1.92-.78-.05-1.05-1.12-.6-2.12-.73-.67-1.47-1.34-2.21-2.02-.56.57-.88,1.23-1.01,1.98-.3,1.69.26,3.11,1.55,4.2.78.66,1.64,1.06,2.57,1.06M15.8,8.55c0-1.03-.57-2.26-1.7-2.62-.22-.07-.43-.11-.63-.11-.43,0-.84.16-1.22.49,1.08.93,2.24,1.67,3.55,2.24M3.18,0c-.88,0-1.57.19-2.17.59C.45.96.08,1.56.01,2.24c-.06.59.11,1.14.48,1.51.34.34.8.54,1.27.54.3,0,.59-.08.84-.24.25-.16.33-.37.26-.65l-.03-.14-.12.08s-.04.02-.05.03c-.04.02-.08.05-.11.09-.13.19-.38.3-.68.3-.33,0-.66-.13-.83-.32-.45-.5-.52-1.28-.16-1.85.33-.53.84-.85,1.6-1,.23-.05.46-.07.69-.07.72,0,1.45.22,2.3.69,1.26.7,2.33,1.7,3.37,2.66l.3.28h0c-.04.05-.07.1-.1.14-.96,1.17-1.27,2.54-.94,4.09.41,1.88,1.88,3.26,3.84,3.6.26.05.53.07.78.07,1.34,0,2.49-.63,3.14-1.72.15-.25.25-.52.36-.8.04-.1.08-.2.12-.31l.13.03c.16.04.33.08.5.12.63.14,1.21.21,1.77.21.61,0,1.21-.09,1.77-.26.82-.25,1.43-.7,1.86-1.37.46-.7.51-1.46.51-2.11,0-1.52-1.26-2.75-2.79-2.75-.24,0-.47.03-.7.09-.71.19-1.18.64-1.38,1.33-.01.04-.02.07-.04.11-.98-1.32-2.32-2.11-3.98-2.35-.26-.04-.53-.06-.79-.06-1.31,0-2.54.5-3.66,1.49-.18-.17-.36-.33-.54-.49-.43-.4-.88-.81-1.33-1.2C6.51,1.01,5.18.06,3.4,0c-.07,0-.15,0-.22,0h0ZM9.92,4.1c.67-.6,1.44-.98,2.41-1.19.32-.07.65-.11.96-.11,1.01,0,2.01.36,3.05,1.11.62.44,1.09.93,1.42,1.49.06.1.1.21.14.33.03.1.07.21.12.31.02.03.03.07.05.11.06.15.15.36.36.36.04,0,.09,0,.14-.03.26-.11.17-.37.12-.52-.02-.05-.03-.1-.04-.14-.02-.11-.07-.22-.12-.32-.26-.53-.15-1.05.3-1.43.37-.31.78-.47,1.2-.47.26,0,.54.06.82.18.79.34,1.32,1.04,1.45,1.92.14.93-.22,1.88-.94,2.48-.66.56-1.49.84-2.46.84-.08,0-.16,0-.25,0-.49-.02-.99-.12-1.47-.21-.22-.04-.44-.08-.66-.12-.12-.02-.17-.05-.17-.22-.03-1.62-1.12-2.84-2.71-3.03-.07,0-.15-.01-.22-.01-.48,0-.95.19-1.42.57l-.59-.54-1.48-1.35h0ZM12.63,11.53c-.84,0-1.69-.35-2.5-1.04-1.29-1.09-1.8-2.47-1.51-4.1.13-.71.43-1.34.92-1.85l.76.7,1.33,1.21c-.26.62-.27,1.3,0,1.74.16.28.41.43.72.45l.28.02-.21-.19c-.56-.52-.69-1.06-.38-1.69l.21.16c.22.16.43.32.64.48.95.7,1.84,1.2,2.73,1.53.02.02.07.13.06.18-.21,1.01-.76,1.72-1.65,2.11-.46.2-.93.3-1.38.3h0ZM12.41,6.32c.34-.26.69-.39,1.07-.39.19,0,.39.03.6.1,1.02.33,1.57,1.41,1.62,2.37-1.18-.53-2.26-1.21-3.29-2.08h0Z"/><path class="cls-1" d="M15.78,8.6c-1.29-.56-2.45-1.29-3.57-2.25.39-.41.81-.57,1.26-.57.21,0,.43.04.65.11,1.19.39,1.73,1.65,1.73,2.67v.08l-.07-.03Z"/><path d="M13.47,5.83c.2,0,.42.04.63.11,1.13.37,1.7,1.59,1.7,2.62-1.32-.57-2.47-1.31-3.55-2.24.39-.33.79-.49,1.22-.49M13.47,5.73c-.46,0-.89.17-1.29.51l-.09.08.09.08c1.12.96,2.29,1.7,3.58,2.26l.14.06v-.15c0-1.03-.55-2.32-1.77-2.72-.23-.07-.45-.11-.66-.11h0Z"/></svg>