<svg width="37" height="41" viewBox="0 0 37 41" fill="none" xmlns="http://www.w3.org/2000/svg">
<path d="M22.2637 1.61621C23.0456 1.41312 23.9131 1.42868 24.6524 1.55762C27.6743 2.0864 30.6507 4.49315 32.8516 7.47559C34.9844 10.3658 36.4143 13.8307 36.4493 16.7256L36.4483 17.0039C36.4336 17.962 36.1033 18.8202 35.7715 19.5605C35.6033 19.936 35.4397 20.2708 35.3067 20.5879C35.1745 20.903 35.0817 21.1797 35.0557 21.4238C35.015 21.8416 35.0507 22.2701 35.1006 22.7158C35.1502 23.1574 35.2146 23.6201 35.2237 24.085C35.2416 25.0029 35.0429 25.9442 34.1231 26.8799L34.1534 26.9404L34.0733 27.0176C33.19 27.8623 32.0935 27.9978 30.9483 27.9111C31.18 31.6848 29.7189 35.3335 27.003 37.9619C26.4997 38.4592 25.4875 39.325 24.4346 39.8916C23.9087 40.1746 23.3613 40.3887 22.8555 40.4385C22.345 40.4886 21.8647 40.3716 21.5049 39.9766L21.3848 39.8447L21.5352 39.749C26.2173 36.7664 29.224 32.5669 29.7022 26.9805L29.7081 26.915L29.7598 26.874L30.1573 26.5654L30.2296 26.5088L30.3135 26.5488C30.8657 26.8085 31.3948 26.771 31.8682 26.542C32.3465 26.3106 32.7726 25.8804 33.0958 25.3506C33.4184 24.8214 33.6329 24.2021 33.6944 23.6064C33.756 23.0095 33.663 22.4484 33.3887 22.0225C33.2124 21.7487 33.0068 21.6373 32.795 21.5967C32.5731 21.5541 32.3362 21.5869 32.0938 21.626C31.9768 21.6448 31.8552 21.6658 31.7432 21.6748C31.6317 21.6838 31.5155 21.6821 31.4083 21.6504C31.2958 21.6171 31.1964 21.551 31.1251 21.4395C31.0565 21.3322 31.0205 21.1936 31.0089 21.0254L31.0049 20.9736L31.0333 20.9307C31.4785 20.2706 31.9372 20.012 32.4649 19.9883C32.7201 19.9768 32.983 20.0207 33.2549 20.0879C33.4795 20.1434 33.7197 20.2172 33.9708 20.292C34.8305 16.4423 33.7014 11.8344 31.252 8.35254C28.7711 4.82613 24.9602 2.48324 20.5333 3.22852L20.2374 3.27832L20.3751 3.01172C20.7696 2.24688 21.4806 1.8197 22.2637 1.61621ZM8.5108 34.4365L11.4854 38.5244L11.7501 38.8867L11.3204 38.7559C9.25415 38.1231 7.73595 36.5298 6.75104 34.6152C5.76619 32.7006 5.30682 30.4502 5.36432 28.4756L5.64948 28.416L8.5108 34.4365ZM2.22858 20.6465C2.6594 20.4225 3.13269 20.3203 3.60065 20.4141C4.07058 20.5082 4.51641 20.7965 4.89655 21.3193L4.92291 21.3555L4.92584 21.4004C4.92933 21.4704 4.90864 21.5348 4.86823 21.5889C4.83012 21.6397 4.77869 21.6753 4.72858 21.7012C4.63073 21.7516 4.49886 21.784 4.36237 21.8115C4.0757 21.8694 3.72194 21.9153 3.34576 22.0283C2.97405 22.1401 2.60046 22.3136 2.29694 22.6123C1.99555 22.909 1.75338 23.3391 1.65826 23.9834C1.518 24.926 1.57308 25.536 1.74225 25.9531C1.90854 26.363 2.19252 26.6061 2.55963 26.8008C2.74525 26.8992 2.94989 26.9842 3.17096 27.0723C3.38991 27.1595 3.62565 27.2502 3.86334 27.3574C4.34164 27.5731 4.83946 27.8607 5.28424 28.3516L5.38092 28.458L5.27838 28.5586L5.22272 28.6143L5.18658 28.624C3.21079 29.1983 1.76176 28.7088 0.934631 27.583C0.117871 26.4712 -0.0625248 24.778 0.398499 22.998H0.399475C0.650789 22.0338 1.3718 21.0919 2.22858 20.6465ZM14.2247 23.6582C14.9212 24.3465 15.1315 25.0209 15.0782 25.7168C15.0263 26.395 14.722 27.0876 14.4278 27.8076L14.3633 27.9658L14.2149 27.8809C13.4543 27.4449 13.0343 26.63 12.9893 25.8086C12.9443 24.9859 13.2748 24.1369 14.0372 23.6396L14.1378 23.5732L14.2247 23.6582ZM23.4005 23.5596C23.5519 23.5071 23.7082 23.5205 23.8555 23.6035L23.918 23.6436L23.9571 23.6709L23.9727 23.7168C24.457 25.1247 24.7167 26.7015 23.3907 27.8633L23.3223 27.9238L23.2374 27.8906C22.7748 27.711 22.5247 27.283 22.4151 26.7979C22.3053 26.3118 22.3288 25.742 22.4346 25.2227C22.5401 24.705 22.7313 24.218 22.9727 23.9023C23.0931 23.745 23.2365 23.6165 23.4005 23.5596ZM21.0557 6.01367L21.3975 9.71289C22.7371 8.622 23.9404 8.42803 24.8975 8.95508C25.8881 9.50061 26.5469 10.7867 26.8194 12.4307C26.9553 13.2509 27.0231 14.122 27.1065 14.9775C27.1903 15.8367 27.2898 16.6838 27.4874 17.4736C27.8808 19.0462 28.6591 20.379 30.4747 21.0996L30.6094 21.1533L30.5606 21.29C30.2974 22.0268 29.9172 22.4064 29.4444 22.4541C28.9909 22.4998 28.5228 22.2285 28.1046 21.8525C27.2597 21.0931 26.4804 19.7804 26.1895 18.9902V18.9893C25.8407 18.0759 25.7118 16.927 25.6202 15.7783C25.5277 14.6191 25.473 13.4605 25.2784 12.4951C25.0827 11.5249 24.7551 10.8031 24.1602 10.4688C23.5689 10.1365 22.653 10.1551 21.1954 10.8232L21.0753 10.8779L21.0059 10.7646L19.6573 8.57031C19.0581 10.9643 18.4014 13.6546 17.2452 15.9805C16.0307 18.4234 14.2582 20.4824 11.4092 21.3828L11.2432 21.4346L11.2159 21.2627C11.1472 20.8253 11.2173 20.4655 11.3809 20.1602C11.5425 19.8586 11.7903 19.6197 12.0606 19.4121C12.3287 19.2062 12.6351 19.0194 12.9102 18.8369C13.1909 18.6507 13.4456 18.4651 13.6378 18.249L13.6387 18.248C14.3706 17.4413 15.5553 15.8232 16.0596 14.8818C16.4276 14.1677 16.6971 13.2992 16.9473 12.3779C17.1962 11.4616 17.4269 10.4887 17.7139 9.5918C18.2858 7.80515 19.111 6.22025 20.878 5.87988L21.0401 5.84863L21.0557 6.01367ZM14.9424 9.52539C15.4009 9.84421 15.433 10.3741 15.3565 10.8604C15.3176 11.1074 15.2489 11.3585 15.1807 11.5889C15.1113 11.8235 15.0443 12.0313 15.003 12.208C14.4016 14.8394 12.8852 17.9541 10.9297 19.8867C10.7562 20.0582 10.2533 20.5272 9.74127 20.9014C9.48646 21.0875 9.22098 21.2565 8.98834 21.3516C8.87234 21.399 8.7543 21.4322 8.64459 21.4346C8.62601 21.435 8.60752 21.4322 8.58893 21.4307V21.6084L8.33112 21.3438C8.22615 21.2358 8.15978 21.1174 8.1358 20.9902C8.11191 20.8632 8.13304 20.7398 8.17975 20.626C8.27054 20.4051 8.46692 20.2014 8.67584 20.0234C8.88778 19.8429 9.13349 19.6713 9.34186 19.5225C9.55911 19.3673 9.72298 19.2449 9.79987 19.1514C10.6467 18.0911 11.4638 16.8924 12.1114 15.668C12.6446 14.6555 12.9894 13.6228 13.3565 12.5908C13.7223 11.5624 14.11 10.5373 14.7305 9.56738L14.8145 9.43555L14.9424 9.52539ZM16.0421 0.15332C16.2583 0.138269 16.6626 0.191289 17.1114 0.291016C17.5676 0.392427 18.0898 0.54535 18.544 0.739258C18.9902 0.929757 19.4013 1.17187 19.6006 1.46484C19.7045 1.61746 19.7566 1.79308 19.7149 1.98145C19.6742 2.16526 19.5493 2.33582 19.3536 2.49512L19.2628 2.56934L19.169 2.49902C18.2041 1.77376 17.0497 1.64678 15.8624 1.82227C14.6733 1.99802 13.4681 2.47518 12.419 2.9375H12.418C7.20597 5.22072 2.93118 10.3986 2.39752 16.0332L2.17096 20.1533L2.15143 20.5068L1.91022 20.2461C0.398245 18.6064 0.273275 16.1938 0.788147 13.8438C1.30425 11.4883 2.47137 9.15308 3.60455 7.62207C4.82556 5.97537 6.88599 4.1674 9.15826 2.74316C11.4276 1.32076 13.9298 0.26833 16.0391 0.15332V0.152344L16.0411 0.15332H16.0421Z" fill="black" stroke="black" stroke-width="0.3"/>
</svg>
