<?xml version="1.0" encoding="UTF-8"?>
<svg xmlns="http://www.w3.org/2000/svg" viewBox="0 0 384 708">
  <defs><style>.st1{fill:#fff;}.st3{fill:#221e1f;}</style></defs>
  <rect class="st1" x="25.11" y="226.06" width="329.42" height="379.69"/>
  <g>
    <path d="M194.97,374.56c-1.35,1.1-2.18,1.26-1.85,3.48-1.98-1.75,1.55-3.64,1.81-5.49.22-1.6-1.33-2.11-.51-4.19.72-1.83,3.09-2.35,2.56-4.93-.09-.46-.53-.92-.67-1.38-.96-3.15,1.13-6.8,3.09-9.2,1.53-1.88,4.29-4.49,6.85-3.29l-.1.41c-.33-.1-.67-.23-1.02-.23-3.65.08-8.25,7.23-8.28,10.6-.02,1.75,1.32,2.59.99,4.68-.26,1.62-2.95,2.84-2.84,4.92.03.6.5.98.59,1.46.26,1.4-.22,2.01-.6,3.17,1.09-.88,2.01-1.79,3.46-2.07.08-.87-.35-1.59-.14-2.5.15-.67.89-1.04,1.23-1.64.3-.54.29-1.13.68-1.58.64,1.5-1.17,2.54-1.29,3.84-.05.58.41,1.1.37,1.69,1.62-.67,3.62-.77,3.79-2.87.76-.56.27,1.24.12,1.5-.04.08-1.23,1.04-1.38,1.13-2.18,1.34-5.19.84-6.66,3.58-1.35,2.51-2.72,10.99-2.83,13.97-.12,3.05,2.48,5.43,4.2,7.68h.29c.12-.64,1.05-.99,1.65-1.03-1.35-1.74-.15-4.06,2.05-3.89-1.1-4.07,5.1-5.19,5.33-1.02.59-.12.9-.51,1.56-.6,1.94-.24,3.38.88,3.36,2.85,2.62-.92,4.1.47,3.88,3.17-.04.5-.64.79-.09,1.14l.81-.21c1.11-1.83,4.15-4.65,4.57-6.7.35-1.71-.81-7.35-1.24-9.32-.47-2.17-1.28-6.23-3.12-7.54-1.8-1.28-6.11-1.21-6.65-3.81-.07-.36-.22-1.32.4-1.12.06,2.91,4.29,2.95,6.36,3.8,1.63-3.16-2.98-4.14-2.05-7.49.7-.17.34.82.43,1.31.35,1.88,2.78,2.42,2.81,4.73,0,.58-.53,1.69-.52,1.85,0,.11,1.1,1.23,1.34,1.67,1.21,2.25,2.1,7.07,2.61,9.69.86,4.47,1.76,6.06-1.14,9.94-.95,1.27-2.31,2.6-3.39,3.79.73,1.35.7,5.06-1.27,5.31-.5.06-.83-.61-1.48-.17v.6c.53,0,.91-.08,1.03.52.24,1.23-1.2,1.16-.63,2.83.11.32,2.06.3.83,2.24-.13.21-.52.23-.6.49-.04.12.17,2.29.21,2.4.09.27,2.42,1.06,1.1,2.58-.52.6-1.07.03-1.07,1.6,0,.95.79,1,.79,1.99s-.57.81-.64,1.07c-.26.99.51,2.15,0,3.14-.3.29-.37-.02-.41-.3-.11-.85.44-2.43-.61-2.57v-.3c1.51-1.07-.08-1.91-.03-2.87.04-.74.98-1.04.45-2.22l.49-.35.2.41c.6-.21.32-1.53-.51-.61,0-1.58-1.71-.73-1.14-2.68.15-.51.71-.42.73-.89-.16-1.29-1.3-.2-1.44-1.86-.15-1.76.97-1.79,1.04-2.09.12-.51.04-2.72-.54-2.9s-1.37.25-1.82-.43c-.41.47-.32.98-.71,1.54-.37.52-1.56,1.07-1.61,1.16-.2.34.23.88.14,1.26-.08.34-.78.74-.99,1.07.43,1.24.39-.42.92.1.24.33-.03,1.23.13,1.41.1.11.94.08,1.16.79.53,1.77-.86,1.59-1.16,1.93-.12.14.04.75-.06,1.07-.13.41-1.04.4-.79,1.16l.82-.2c-.2,1.99.17,1.09.94,1.62.96.66.55,2.97-.93,2.69.05.51-.09,1.03-.1,1.53,0,.33.05,1.63.11,1.82.09.25,1.34.43,1.17,1.62-.13.93-1.07.88-1.17,1-.12.14.06.67-.13,1-.16.27-1.14.41-.6,1.03h.7l.04,1.19c1.89-.07,1.64,2.58-.04,2.29.16.52-.18,1.36-.12,1.75.04.29.7.59.71,1.21.01.8-1.18,2.22-1.29,1.15-.06-.56.24-1.35.09-1.92-.07-.26-.7-.14-.63-.85.05-.51.69-.69.79-1.08.07-.29-.22-.88.04-1.29.59.78,1.4-.17.61-.52-.24-.11-.58.13-.6.1-.05-.06-.65-.93-.8-1.15-1.18-1.7.62-1.97.71-2.63.03-.21-.17-.54-.14-.83.04-.45.32-1.68.18-2.04-.18-.43-1.31-.12-.94-1.82.19-.89.94-.67,1-.89l.08-1.53c.1-.16,1.56.17.73-1.11-1.49-.03-.77-.95-.91-1.14-.13-.17-.6-.18-.83-.4-.69-.67-.09-2.25.89-2.28l.03-1.82.82.41-.09-1.03h-.71c.09-1.05-1.06-1.16-1.21-1.99-.22-1.19,1.21-1.38.99-2.51-1.08-.03-2.27-.63-2.77-1.64-.44.61-.83,1.23-1.59,1.48-.68.22-2.08-.08-2.2.26-.34.97.93.2,1.02.31l.02,1.21c1.79.03,1.6,2.28-.03,2.39.14.76-.16,1.94,0,2.61.07.28.91.17.85,1.27-.05.87-1.06.7-.85,1.62.05.21,1.25.2,1.18,1.42s-1.16,1.13-1.18,1.28c-.06.37.22.82.22,1.21s-.27.81-.21,1.2c.02.15.38.14.48.39.46,1.08-.4,1.27-.48,1.92-.08.71.76,2.85-.41,2.96,0-.92.21-2.25,0-3.13-.05-.21-.88-.32-.82-1.26.04-.65.66-.89.77-1.29.16-.54-.02-1.22.06-1.79-2.06-.29-1.83-2.59,0-3.11v-2.41c-.05-.18-1.09-.15-1.15-1.04-.09-1.19.96-1.25,1.11-1.68.08-.22.12-2.63.02-2.72-.08-.08-.85.12-1.12-.42-.32-.62.13-1.14.06-1.52-.04-.24-.96-.94-.97-1.47-1.94.44-3.69-.44-3.49-2.62.06-.68.83-1.48.8-1.64-.05-.2-.47-.38-.56-.68s.03-.68-.04-.94c-.05-.2-.42-.26-.58-.48-1.79-2.53-4.43-5.12-4.33-8.38.15-4.96,1.94-10.42,3.48-15.07h-.03ZM213.42,399.36c-.32-.15-1.17-.32-1.56-.39-.21-.04-2.09.12-1.52-.43,1.3-.21,1.99-.05,2.87-1.13,1.54-1.91.05-3.77-2.06-3.08-.53.17-.8.97-1.42.63l-.38-.59c1.92-2.32-2.06-4.29-3.29-2.06-.24.44-.14.97-.54,1.3-.79-1.26.54-2.16-.71-3.53-1.91-2.08-5.05.4-3.49,2.81-.34.54-.8.07-1.33.09-1.36.06-2.06,2.01-1.07,2.82.28.23,1.12.42,1.54.62.29.13.56-.12.45.46-1.3.46-1.83-.63-3.15.24-.7.46-.93,1.24-.66,2.03.24.7,1.26.63,1.14,1.11-2.23.84-1.37,3.89,1.09,3.14.47-.14.76-1.08,1.56-.76.58.87-.58,1.31-.37,2.09.3,1.08,1.36.08,1.4.15v.82c1.12-.04,2.04-.68,2.63-1.59l.24-2.71c-1.55.31-1.43-.34-2.16-1.01-.26-.24-.67-.23-.9-.54-.47-.65-.34-2.55.8-2.34.23.22-.79,1.18-.23,1.93.21.27.78.01,1.06.21.35.24-.21,1.71,1.83.83.89-.38.79-1.2,1.64-1.12.17.91-1.27,1.67-1.43,2.01-.15.31-.26,1.41-.22,1.78.31,3.76,5.25,2.3,4.11-.92,1.42.25,1.7,1.19,3.28.51,1.76-.76,1.08-1.96.82-3.38,1.36.64,1.25,2.02,1.13,3.28,1.24-.79.31-1.5.34-1.91.03-.34.51-.61.35-1.22-.08-.28-.99-1.14-1.29-1.16-1.05-.07-.61.51-.52,1.01h.02ZM213.01,407.55l-.42.12c-.53,1.62-.21,1.62,1.24,1.73l-.03-1c-.56-.18-.92-.14-.79-.85ZM202.54,416.58l-1.21-.22c-.39,1.06-.38,1.98,1.04,1.55l.18-1.33h0Z"/>
    <path d="M161.15,361.85c-.21-.22-2.54,1.3-2.93,1.47-1.65.74-5.79,1.71-6.7,3.14-.52.82-.89,3.63-1.02,4.72-1.24,10.6-1.18,22.98-.41,33.61.06.78-.03,1.58,0,2.36l3.89.31c-.3.37-.67.46-1.12.52-.71.08-3.24.13-3.39-.72l-.62-8.81.2-16.82c.55-4.52.35-9.43,1.29-13.88.78-3.67,3.36-3.34,6.3-4.56,1.39-.58,2.8-1.43,4.17-1.98.42-.17.89-.54,1.16-.06l-1.19,4.87,2.16,2.09-1.51,2.67c1.59,3.94,3.05,7.96,4.33,12,.2.64,1.39,2.38.31,2.77-1.89-3.6-2.8-7.64-4.09-11.48-.35-1.05-1.4-2.83-1.14-3.79.14-.52,1.11-1.59,1.08-1.95-.6-.88-2.05-1.2-2.01-2.45.03-.73,1.39-3.86,1.24-4v-.03Z"/>
    <path d="M173.45,362.26l.61-.41c-.78,5.07-1.74,10.16-2.71,15.22-.95,4.91-2.43,9.8-2.82,14.81-.05.67.08,1.42,0,2.05-.04.28-.15.64-.41.3.02-.78-.04-1.57,0-2.35.04-.73.79-4.65.61-4.82-.05-.04-.47.11-.63-.12-.2-.29-1-4.18-1.15-4.96-1.16-5.84-1.89-11.79-2.72-17.67.56-.14.46.42.55.78,1.52,6.54,2.17,13.75,3.79,20.2.06.23.06.77.38.74l4.3-22.34c-.55.43-.36.91-1.31.82-1.18-.11-1.8-1.38-2.16-1.54-.21-.1-1.12.28-1.53-.11-2.2,2.8-4.35,2.37-3.99-1.51.2-2.08,1.06-2.11,2.85-1.26.42.2,1.02.89,1.15.91.24.04.48-.36.8-.39,1.43-.15.72-.08,2-.65,2.25-1,2.82.2,2.4,2.29h0ZM168.1,362.43l-.17-1.09c-.59-.07-2.42-1.29-2.78-.73-.17.83-.31,3.38.98,3.04.11-.03,1.91-1.13,1.97-1.22h0ZM172.63,360.41c-.23-.16-2.22.68-2.47.93-.11.1-.21,1.22-.17,1.29.05.08,1.52.96,1.61.98,1.25.35,1.15-2.44,1.03-3.2h0Z"/>
    <path d="M236.78,465.56c-.24-1.58,2.62-2.39.97-3.74-1.56-1.28-3.74-1.95-5.39-3.63-6.22-6.34-7.18-26.88-8.32-35.75-1.03-8.06-3.25-16.28-6.53-23.7.4-.38,1.59,1.95,1.74,2.26,5.49,11.58,5.54,25.69,7.54,38.17,1.01,6.35,2.17,15.4,7.43,19.63,1.21.97,3.58,1.83,4.48,2.69,1.45,1.38-.24,3.75-1.92,4.07h0Z"/>
    <path d="M194.76,398.54c-6.32,13.06-6.97,27.74-9.05,41.88-.99,6.76-2.05,16.39-6.08,22-.19.26-.21.57-.65.47,2.61-4.04,3.59-8.8,4.45-13.48,2.23-12.1,2.94-24.55,5.64-36.58.91-4.06,2.82-10.55,5.01-14.04.23-.37.19-.28.67-.26h.01Z"/>
    <path d="M187.18,406.12c-.23-.98-.24-1.97-.22-2.98.25-9.91.53-20.02-.4-29.91-.14-1.46-.58-5.77-1.07-6.93-.31-.74-4.43-2.1-5.42-2.57l-3.14-1.67c-.22.23,2.58,4.69.2,4.51.69-1.8-.73-3.35-.82-5.12.75-.21.99.42,1.49.66,2.54,1.19,5.63,1.78,7.81,3.46,1.73,4.8,1.93,10.36,2.17,15.46.32,7.01.79,15.37.2,22.34-.06.74-.29,2.25-.81,2.77v-.02Z"/>
    <path d="M174.88,459.41l.41-8.3c1.5-13.06,3.13-26.11,4.94-39.12.07-.5.45-3.18.9-3.2.4.26.3.5.29.89-.17,4.78-1.88,10.98-2.44,16.02-1.17,10.42-1.75,20.94-3.1,31.33-.03.22-.47,2.99-1,2.38h0Z"/>
    <path d="M161.76,459.61c-.58.16-.69-1-.76-1.39-1.58-7.9-2.2-18.03-2.92-26.18-.64-7.2-1-14.4-1.43-21.62l5.12,49.19h-.01Z"/>
    <path d="M213.8,379.03l.13-.38c.8-.03.48,1.56.6,2.05.24,1.01,1.06,2.6,1.14,3.61.05.73-.44,1.58-.39,2.22.06.88.87,2.38.82,3.49-.02.45-.19.83-.53,1.13-.55.26-.17-.9-.18-1.09-.05-.8-.3-1.59-.33-2.39-.7.25-1.17,2.88-1.44,3.07l-.38-.3c.32-1.39,1.56-3.37,1.63-4.73.05-.92-.53-4.19-.88-5.07-.59-1.48-3.47-1.56-4.78-1.19-1.13.32-1.81,1.28-2.88,1.65-2.07-.95-3.52-2.49-6.08-2-2.21.42-2.74,2.65-2.96,4.62-.33,2.97,1.17,4.32,1.58,7.01l-1.64-3.07c-.06.84-.16,1.79-.38,2.6-.1.35.15.57-.44.47-.32-1.41.51-2.95.54-4.23.01-.7-.36-1.42-.34-2.21.03-1.57,1.06-3.03,1.2-4.16.06-.47-.42-.93.15-1.29.38-.16.29.42.41.42.29.01,1.33-.68,1.85-.82,2.18-.59,4.19.41,5.97,1.6,2.27-1.53,5.07-2.64,7.62-1.02h0Z"/>
    <path d="M221.82,385.62c.09-1.31,1.02-2.34.97-3.74-.11-3.05-3.4-4.35-2.93-7.55.3-2.04,1.47-2.41.62-4.9-.84-2.48-3.98-2.98-3.79-5.84.04-.63.4-1.26.42-1.86.06-2.33-2.4-7.57-3.91-9.41-1.05-1.28-2.52-2.62-4.3-2.37.25-.62,1.1-.43,1.65-.32,3.73.77,7.81,9.21,7.37,12.73-.15,1.16-.77,1.3-.11,2.76.47,1.03,1.55,1.48,2.26,2.25s1.33,2.05,1.48,3.02c.45,2.9-2.13,3.88-.12,7.09,1.06,1.69,2.07,2.16,2.14,4.57.03,1.08-.53,3.29-1.77,3.55l.02.02Z"/>
    <path d="M168.94,414.11c-.11.8.21,1.56.22,2.35.01.9-.22,1.65-.22,2.46-.11,12.3.8,25.83.02,37.94-.05.72-.33,1.41-.21,2.14h-.61c.21-1.05-.22-2.23-.22-3.18,0-11.94.28-24.12.64-36.06.05-1.66-.21-3.77,0-5.34.05-.37-.07-.33.41-.3h-.03Z"/>
    <path d="M177.68,350.09c-.49.48-1.11.54-1.78.48.16,2.14-.66,4.23-2.17,5.72-.56.55-2.25,1.93-2.95,1.15,2.64-1.7,4.33-4.09,4.6-7.28l.22-.17c1.34.63,2.5-1.63,1.82-2.68-.45-.7-1.28.17-1.32-.52.47-.71.94-.52,1.64-.31,1.05-4.45-2.55-10.7-7.58-9.84.42-.8,1.5-.91,2.31-.77,3.33.59,6.59,5.37,6.52,8.66-.02,1.06-.72,1.89-.78,2.49-.1.98.53,2.03-.54,3.08h.01Z"/>
    <path d="M169.6,407.3c3.84,1.12,7.75.6,11.64.05.64.65-1.61,1.14-1.97,1.21-3.31.58-7.06.19-10.28-.64l-.77-3.03c-.71.93-.15,2.63-1.49,3.02-1.69.49-4.34.58-6.11.47-.53-.03-4.17-.51-4.19-.93s.58-.14.72-.11c1.73.28,3.13.52,4.92.43.81-.04,3.52-.31,4.14-.57,1.34-.56,1.25-5.55,2-5.58l1.38,5.69h.01Z"/>
    <path d="M182.67,406.12l-.41-.3c.2-.9-.22-1.86-.22-2.67,0-5.89-.02-11.95.23-17.82.02-.56-.22-4.21.3-4.21.37.25.29.54.32.91.16,2.09-.07,4.44-.02,6.58.12,4.91.53,10.03.22,14.96-.02.36-.32,2.46-.42,2.55Z"/>
    <path d="M180.02,367.78c.06.06,1.13-.09,1.38.77.42,1.42-.64,1.56-.73,2.03-.05.25.2.66.18,1-.04.76-.88,1.44-1.65,1.34-.23.23.91,3.82-.72,4.09l-.92-1.84-.95,1.6-.57-.15c-.44-.33.18-3.45.8-3.91l-.31,3.28c.72-.58.74-1.83,1.03-2.66.54-.05.33,0,.4.31.05.19.3,2.8.82,2.15.04-1.33.1-2.45-.41-3.69.87.4,1.98.25,1.86-.93-.05-.5-.59-.46-.63-.61-.21-.69.41-.43.84-.8,1.04-.9.07-1.63-1.04-1.35.62-2.22-1.09-2.02-1.74-.21l-.43-.83c-.74-.07-1.55.03-1.54.94,0,.53.45.65.43,1.12-1.52.04-1.23-2.28-.06-2.63.63-.19,1.15.23,1.55.13s.63-.83,1.46-.78c1.36.07.81,1.49.95,1.63h0Z"/>
    <path d="M155.62,381.53c-.27,4.6-.18,9.21-.2,13.84v2.65c0,1.74.2,4.13,0,5.76-.05.41-.09.76-.62.71.05-.59-.17-1.15-.21-1.73-.39-5.55-.35-14.82.44-20.28.05-.33.06-1.12.59-.94h0Z"/>
    <path d="M216.7,467.61c-.81.97-2.45,1.68-3.68,1.96-5.71,1.28-10.8-2.23-16.5-2.38-.85-.02-1.54.21-2.26.22-.41,0-.33-.03-.31-.41.08-.09,2.03-.39,2.36-.41,5.9-.37,11.54,3.52,17.36,2.19,1.1-.25,1.99-.83,3.03-1.17h0Z"/>
    <path d="M170.37,338.28l.21,2.25c1.58-1.4,2.72-.46,3.02,1.39s0,4.12,2.1,4.97c-.56,1.61-1.96-.42-2.29-1.3-.75-2.01.38-6.19-2.9-4.67l-.85-1.42c-.7,2.8-1.48,6.38-4.61,7.38-.14-.92.88-1.11,1.34-1.63.41-.46,1.08-1.37,1.36-1.92.84-1.66.76-4.69,2.63-5.06h-.01Z"/>
    <path d="M167.66,335.04c.43-.02,2.61.51,1.79,1.18-1.13-.85-2.69-.28-3.87.24-2.93,1.3-5.33,4.24-5.64,7.48l-.13,2.33c-1.64-1.8-.3-5.32.96-7.03,1.35-1.84,4.57-4.06,6.88-4.19h.01Z"/>
    <path d="M169.35,464.74l4.51,3.18c6.08,1.98.45-4.87-.25-6.93-.13-.39-.29-.44.15-.76,1.11,1.47,4.24,5.85,3.7,7.59-.9,2.91-5.44-.07-6.77-1.24-.27-.24-1.68-1.45-1.34-1.84Z"/>
    <path d="M168.53,464.94c.29.26-1.89,2.07-2.15,2.25-1.38.96-5.05,2.49-6.67,1.96-.23-.08-.5-.21-.58-.46-.52-1.62,3.3-6.85,4.38-8.26l.21.61c-.63,1.48-4.13,5.6-4.21,6.88-.02.29.02.39.21.61.7.8,4.71-1.06,5.6-1.58.49-.29,2.88-2.32,3.21-2.01h0Z"/>
    <path d="M206.04,353.65c-.13,1.37-.47,2.79-1.35,3.88-1.44,1.77-4.86,2.03-5.11,4.71-.12,1.28.73,1.13,1.02,1.46.18.21.47,1.4.76,1.91.38.66,1.07,1.33,1.6,1.88-1.2.18-1.93-1.19-2.35-2.16-.16-.38-.17-1.05-.31-1.29-.27-.46-1.58-.12-1.22-2.08.63-3.45,4.47-3.04,5.84-5.84.32-.64.39-1.36.65-2.02.12-.31-.12-.55.46-.45h0Z"/>
    <path d="M179.18,463.92s.03.34.22.49c1.59,1.25,3.67,1.43,5.62,1.56,1.79.12,3.97-.51,5.44.91.01.72-3.55-.23-4.02-.28-1.98-.2-5.7.01-7.23-1.58-.54-.56-.52-1.54-.02-1.11h0Z"/>
    <path d="M186.98,406.74c.31.86-.9.75-.97,1.11.74,2.07-.06,5.66-2.51,6.06-.23-.99.57-1.02.99-1.57.99-1.28.74-3.11,1.26-4.58-.75.04-1.51-.11-2.21-.36-.33-.12-.55.11-.45-.46,1.41.13,2.51.11,3.89-.2h0Z"/>
    <path d="M232.68,465.76c-4.25-.12-8.59-.76-12.7.62-.1-.53.09-.36.41-.51,2.63-1.2,8.29-1.31,11.15-.91.44.06,1.22.21,1.15.8h-.01Z"/>
    <path d="M151.11,408.17c0,1.45.14,4.53,1.84,5.04.83.25,2.06-.79,1.82.88-3.52,1.56-4.78-2.61-4.07-5.42.09-.34-.21-.6.41-.5Z"/>
    <path d="M209.93,355.29c.16,1.09.5,2.36,1.14,3.27,1.2,1.71,4.52,2.13,3,4.87-.46.82-1.78,1.19-1.47.58.22-.44,1.19-.43,1.24-1.65.06-1.41-.59-1.04-1.22-1.45-1.64-1.06-2.82-2.74-3.07-4.72-.05-.41-.23-1.06.38-.9h0Z"/>
    <path d="M170.58,385.21l.52-1.63,4.6-10.66c-1.02,3.05-2.03,6.16-3.27,9.12-.31.73-.83,2.09-1.19,2.7-.17.28-.25.55-.66.47Z"/>
    <path d="M161.56,350.98c-2.16.63-3.08-1.1-2.57-3.08.27-1.05,1.55-2.06,2.36-.92.02.32-1.61-.08-1.83,1.45-.31,2.16,1.1,1.48,2.04,2.54h0Z"/>
    <path d="M163.41,346.88c-.39-.42.61-.87.82-1.13.48-.61.94-1.29,1.3-1.98.6-1.16.78-2.37,1.47-3.45.43.3.1,1.02,0,1.43-.34,1.47-1.18,3.23-2.25,4.31-.19.19-1.11,1.05-1.34.81h0Z"/>
    <path d="M207.27,353.85l.84,3.15c.51,1.22,1.23,1.75,2.34,2.38l-.22.62c-2.38-.65-3.55-3.92-2.96-6.15h0Z"/>
    <path d="M212.39,363.28c-.12,2.35-1.58,4.75-4.1,4.92-.1-.44.22-.46.48-.65,1.99-1.46,2.19-1.43,3.16-3.82.12-.31-.12-.56.46-.45h0Z"/>
    <path d="M165.04,356.72c-2.25-.7-3.34-3.52-3.28-5.74l1.6,3.42,1.67,2.32h.01Z"/>
    <path d="M175.55,371.64l1.79.36c-1.8,1.59-3.65-.91-1.64-2.15-.1.68-.7,1.1-.15,1.79h0Z"/>
    <path d="M178.52,370.61c-.49.49-1.49.2-1.13-.82.43-1.23,1.84.12,1.13.82Z"/>
    <path d="M172.01,348.32c.27.8.39,1.63-.31,2.25-.89-.34-.27-2.67.31-2.25Z"/>
    <path d="M166.68,350.57c-.79-.46-.89-1.72-.1-2.25.74.75.43,1.42.1,2.25Z"/>
    <path d="M204.4,360c.22.67.32,1.26.02,1.93l-.63.12.03-1.71.58-.34h0Z"/>
    <path d="M208.6,360.21c.7-.15.68,1.74.2,1.84-.7.15-.68-1.74-.2-1.84Z"/>
    <path class="st1" d="M213.42,399.36c.26,1.42.94,2.62-.82,3.38-1.58.68-1.86-.26-3.28-.51,1.13,3.22-3.8,4.68-4.11.92-.03-.38.08-1.47.22-1.78.16-.33,1.59-1.09,1.43-2.01-.85-.07-.75.74-1.64,1.12-2.03.87-1.48-.6-1.83-.83-.29-.19-.86.07-1.06-.21-.56-.75.46-1.71.23-1.93-1.14-.21-1.27,1.69-.8,2.34.23.31.63.3.9.54.73.67.61,1.32,2.16,1.01l-.24,2.71c-.59.9-1.51,1.55-2.63,1.59v-.82c-.05-.07-1.11.93-1.41-.15-.22-.78.95-1.22.37-2.09-.8-.32-1.09.62-1.56.76-2.45.75-3.32-2.3-1.09-3.14.12-.49-.9-.41-1.14-1.11-.27-.8-.04-1.58.66-2.03,1.32-.86,1.85.23,3.15-.24.11-.59-.16-.33-.45-.46-.42-.2-1.26-.39-1.54-.62-.99-.82-.29-2.77,1.07-2.82.53-.02.98.45,1.33-.09-1.57-2.41,1.58-4.89,3.49-2.81,1.25,1.36-.08,2.27.71,3.53.4-.33.3-.87.54-1.3,1.23-2.23,5.2-.26,3.29,2.06l.38.59c.62.34.89-.46,1.42-.63,2.11-.69,3.6,1.17,2.06,3.08-.87,1.08-1.57.93-2.87,1.13-.58.55,1.3.39,1.52.43.39.07,1.24.24,1.56.39-.09-.5-.53-1.08.52-1.01.31.02,1.22.88,1.29,1.16.17.61-.32.88-.35,1.22-.03.41.89,1.13-.34,1.91.13-1.26.23-2.64-1.13-3.28h0ZM203.99,394.44c-1.2-.26-1.96.85-.92,1.63l.18-.82c.25-.33.97.09.74-.81ZM207.69,399.54c3.29.84,1.93-4.51-.63-1.93l.31.51.82-.61c.61-.13.55,1.07.51,1.43h-1.03l.02.6Z"/>
    <path class="st1" d="M202.54,416.58l-.18,1.33c-1.41.43-1.42-.49-1.04-1.55l1.21.22h0Z"/>
    <path class="st1" d="M213.01,407.55c-.13.71.23.67.79.85l.03,1c-1.44-.11-1.77-.11-1.24-1.73l.42-.12Z"/>
    <path class="st1" d="M168.1,362.43c-.06.1-1.86,1.2-1.97,1.22-1.3.34-1.15-2.22-.98-3.04.37-.56,2.19.66,2.78.73l.17,1.09h0Z"/>
    <path class="st1" d="M172.63,360.41c.13.76.22,3.55-1.03,3.2-.09-.03-1.56-.9-1.61-.98-.04-.07.07-1.19.17-1.29.25-.24,2.24-1.08,2.47-.93h0Z"/>
    <path d="M207.69,399.54l-.02-.6h1.03c.04-.36.1-1.57-.51-1.43l-.82.61-.31-.51c2.56-2.58,3.92,2.77.63,1.93Z"/>
    <path d="M203.99,394.44c.24.9-.48.48-.74.81l-.18.82c-1.04-.78-.28-1.9.92-1.63Z"/>
  </g>
  <g>
    <path class="st3" d="M154.8,278.82v-.29c0-1.47.71-2.78,2.29-2.95.38-.04.76-.08,1.14-.12.36-.04.88-.21.88-.66,0-.76-1.08-.89-1.64-.89-.89,0-1.4.19-2.18.6l-.35-.67c.96-.53,1.43-.69,2.54-.69,1.02,0,2.36.4,2.36,1.64,0,.9-.76,1.36-1.58,1.44-.39.04-.78.08-1.16.12-1,.1-1.37.82-1.51,1.73h4.27v.74h-5.06Z"/>
    <path class="st3" d="M164.81,278.96c-1.74,0-3.24-1.04-3.24-2.89s1.45-2.88,3.21-2.88,3.27,1.03,3.27,2.89-1.49,2.88-3.23,2.88h-.01ZM164.74,273.94c-1.29,0-2.41.74-2.41,2.13s1.17,2.14,2.5,2.14,2.47-.7,2.47-2.13-1.23-2.14-2.56-2.14Z"/>
    <path class="st3" d="M169.8,278.82v-.29c0-1.47.71-2.78,2.29-2.95.38-.04.76-.08,1.14-.12.36-.04.88-.21.88-.66,0-.76-1.08-.89-1.64-.89-.89,0-1.4.19-2.18.6l-.35-.67c.96-.53,1.43-.69,2.54-.69,1.02,0,2.36.4,2.36,1.64,0,.9-.76,1.36-1.58,1.44-.39.04-.78.08-1.16.12-1,.1-1.37.82-1.51,1.73h4.27v.74h-5.06Z"/>
    <path class="st3" d="M181.1,278.84c-.36.08-.73.13-1.1.13-1.71,0-3.25-1-3.25-2.84s1.69-2.94,3.38-2.94c.99,0,1.72.29,2.52.86l-.42.59c-.69-.46-1.26-.69-2.09-.69-1.27,0-2.58.75-2.64,2.14,1.02-.53,1.53-.69,2.68-.69,1.05,0,2.74.39,2.74,1.73,0,.96-1.02,1.52-1.83,1.71h.01ZM181.05,276.25c-.3-.08-.59-.1-.89-.1-1.06,0-1.59.21-2.51.73.35.97,1.39,1.33,2.34,1.33.29,0,.57-.02.85-.08.46-.1,1.34-.41,1.34-1,0-.51-.73-.78-1.12-.87h-.01Z"/>
    <path class="st3" d="M185.14,279.02c-.32,0-.59-.25-.59-.57s.26-.58.57-.58c.33,0,.59.26.59.58s-.26.57-.57.57Z"/>
    <path class="st3" d="M193.57,278.96c-1.74,0-3.24-1.04-3.24-2.89s1.45-2.88,3.21-2.88,3.27,1.03,3.27,2.89-1.49,2.88-3.23,2.88h-.01ZM193.49,273.94c-1.29,0-2.41.74-2.41,2.13s1.17,2.14,2.5,2.14,2.47-.7,2.47-2.13-1.23-2.14-2.56-2.14Z"/>
    <path class="st3" d="M200.77,278.95c-.46,0-.92-.08-1.36-.23-.47-.16-.75-.33-1.15-.62l.43-.61c.76.51,1.17.7,2.09.7,1.24,0,2.6-.77,2.64-2.13-1.03.53-1.53.67-2.68.67-1.05,0-2.73-.38-2.73-1.71,0-.92.92-1.48,1.7-1.69.39-.11.8-.15,1.21-.15,1.67,0,3.24.97,3.24,2.78s-1.68,2.99-3.4,2.99h0ZM200.93,273.93c-.29,0-.6.03-.89.1-.45.1-1.27.41-1.27.98,0,.79,1.37.98,1.93.98,1.11,0,1.62-.18,2.59-.72-.42-1-1.34-1.34-2.36-1.34h0Z"/>
    <path class="st3" d="M206.39,279.02c-.32,0-.59-.25-.59-.57s.26-.58.57-.58c.33,0,.59.26.59.58s-.26.57-.57.57Z"/>
    <path class="st3" d="M212.31,278.82v-.29c0-1.47.71-2.78,2.29-2.95.38-.04.76-.08,1.14-.12.36-.04.88-.21.88-.66,0-.76-1.08-.89-1.64-.89-.89,0-1.4.19-2.18.6l-.35-.67c.96-.53,1.43-.69,2.54-.69,1.02,0,2.36.4,2.36,1.64,0,.9-.76,1.36-1.58,1.44-.39.04-.78.08-1.16.12-1,.1-1.37.82-1.51,1.73h4.27v.74h-5.06Z"/>
    <path class="st3" d="M222.32,278.96c-1.74,0-3.24-1.04-3.24-2.89s1.45-2.88,3.21-2.88,3.27,1.03,3.27,2.89-1.49,2.88-3.23,2.88h-.01ZM222.25,273.94c-1.29,0-2.41.74-2.41,2.13s1.17,2.14,2.5,2.14,2.47-.7,2.47-2.13-1.23-2.14-2.56-2.14Z"/>
    <path class="st3" d="M171.67,291.48l-.65-1.19h-3.11l-.63,1.19h-.98l2.76-5.1h.87l2.78,5.1h-1.04ZM169.47,287.36l-1.11,2.08h2.22l-1.11-2.08Z"/>
    <path class="st3" d="M179.08,291.48v-3.58l-1.93,2.86-1.94-2.86v3.58h-.87v-5.1h.87l1.94,2.93,1.94-2.93h.86v5.1h-.87Z"/>
    <path class="st3" d="M187.29,291.48v-5.53h.74v5.53h-.74Z"/>
    <path class="st3" d="M192.45,291.48v-5.53h.74v5.53h-.74Z"/>
    <path class="st3" d="M196.94,291.68c-.32,0-.58-.25-.58-.57s.27-.57.58-.57.57.26.57.57h0c0,.32-.26.57-.57.57ZM196.95,288.44c-.32,0-.57-.26-.57-.57s.26-.58.57-.58.58.26.58.57-.27.58-.58.58Z"/>
    <path class="st3" d="M202.26,291.62c-1.74,0-3.24-1.04-3.24-2.89s1.45-2.88,3.21-2.88,3.27,1.03,3.27,2.89-1.49,2.88-3.23,2.88h-.01ZM202.19,286.6c-1.29,0-2.41.74-2.41,2.13s1.17,2.14,2.5,2.14,2.47-.7,2.47-2.13-1.23-2.14-2.56-2.14Z"/>
    <path class="st3" d="M209.77,291.62c-1.74,0-3.24-1.04-3.24-2.89s1.45-2.88,3.21-2.88,3.27,1.03,3.27,2.89-1.49,2.88-3.23,2.88h-.01ZM209.69,286.6c-1.29,0-2.41.74-2.41,2.13s1.17,2.14,2.5,2.14,2.47-.7,2.47-2.13-1.23-2.14-2.56-2.14Z"/>
    <path class="st3" d="M146.04,299.91v4.23h-.88v-4.23h-1.93v-.87h4.77v.87h-1.97,0Z"/>
    <path class="st3" d="M154.12,304.14v-2.19h-3.13v2.19h-.87v-5.1h.87v2.05h3.13v-2.05h.87v5.1h-.87Z"/>
    <path class="st3" d="M157.99,304.14v-5.1h4.49v.87h-3.62v1.17h1.99v.87h-1.99v1.33h3.72v.87h-4.59,0Z"/>
    <path class="st3" d="M173.02,303.74c-.4.38-.92.4-1.45.4h-3.23v-5.1h3.23c.94,0,1.68.34,1.68,1.39,0,.39-.07.57-.3.9.38.35.55.71.55,1.23,0,.44-.17.88-.49,1.18h.01ZM172.22,300.06c-.12-.11-.2-.15-.64-.15h-2.34v1.09h2.34c.39,0,.82-.05.82-.54,0-.16-.07-.31-.18-.4ZM172.4,302.03c-.15-.13-.25-.16-.79-.16h-2.38v1.41h2.34c.55,0,.7-.05.86-.21.13-.13.21-.31.21-.5,0-.21-.08-.4-.24-.54h0Z"/>
    <path class="st3" d="M179.69,304.14l-.65-1.19h-3.11l-.63,1.19h-.98l2.76-5.1h.87l2.78,5.1h-1.04ZM177.49,300.02l-1.11,2.08h2.22l-1.11-2.08Z"/>
    <path class="st3" d="M182.38,304.14v-5.1h.87v5.1h-.87Z"/>
    <path class="st3" d="M186.2,304.14v-5.1h.87v4.23h3.11v.87h-3.98Z"/>
    <path class="st3" d="M193.62,301.85v2.29h-.87v-2.29l-2.23-2.81h1.1l1.56,1.98,1.56-1.98h1.1l-2.23,2.81h.01Z"/>
    <path class="st3" d="M205.16,304.14v-2.19h-3.13v2.19h-.87v-5.1h.87v2.05h3.13v-2.05h.87v5.1h-.87Z"/>
    <path class="st3" d="M211.55,304.32c-1.58,0-3.07-.98-3.07-2.69v-.14c0-1.72,1.59-2.6,3.15-2.6s3.1.95,3.1,2.69-1.56,2.74-3.18,2.74ZM211.62,299.78c-1.11,0-2.26.59-2.26,1.84s1.1,1.81,2.2,1.81,2.29-.59,2.29-1.84-1.12-1.81-2.23-1.81Z"/>
    <path class="st3" d="M221.8,303.38c-.44.68-1.4.92-2.16.92-.7,0-1.43-.16-1.95-.65-.5-.48-.53-1.06-.53-1.72v-2.87h.88v2.87c0,.7.07.87.23,1.04.32.36.98.45,1.44.45s1.09-.12,1.38-.53c.12-.17.17-.33.17-.96v-2.87h.87v2.87c0,.81-.06,1.06-.31,1.46h-.02Z"/>
    <path class="st3" d="M227.17,304.32c-1.1,0-2.17-.2-3.06-.87l.41-.76c.84.53,1.51.76,2.51.76s1.66-.14,1.66-.82c0-.13-.02-.27-.09-.38-.17-.26-.65-.32-1.42-.32-1.53,0-1.72-.07-2.02-.21-.46-.22-.71-.71-.71-1.21,0-1.24,1.25-1.61,2.28-1.61.94,0,1.76.22,2.59.67l-.4.78c-.73-.43-1.32-.59-2.17-.59s-1.36.2-1.36.7c0,.12.02.25.09.34.14.21.47.29,1.47.29,1.39,0,2.65.12,2.65,1.47,0,1.45-1.22,1.77-2.44,1.77h.01Z"/>
    <path class="st3" d="M231.82,304.14v-5.1h4.49v.87h-3.62v1.17h1.99v.87h-1.99v1.33h3.72v.87h-4.59,0Z"/>
  </g>
</svg>
